<?xml version="1.0" encoding="UTF-8"?>
<svg width="800px" height="428px" viewBox="0 0 800 428" version="1.1" xmlns="http://www.w3.org/2000/svg" xmlns:xlink="http://www.w3.org/1999/xlink">
    <!-- Generator: Sketch 47.1 (45422) - http://www.bohemiancoding.com/sketch -->
    <title>city2</title>
    <desc>Created with Sketch.</desc>
    <defs>
        <rect id="path-1" x="0" y="0" width="800" height="432"></rect>
        <path d="M1.5435,2.95065 C0.75,2.95065 0.108,2.30805 0.108,1.51545 C0.108,0.72285 0.75,0.08025 1.5435,0.08025 C2.3355,0.08025 2.979,0.72285 2.979,1.51545 C2.979,2.30805 2.3355,2.95065 1.5435,2.95065 Z" id="path-3"></path>
        <path d="M1.47947368,2.94789474 C0.69,2.94789474 0.0503684211,2.30684211 0.0503684211,1.51736842 C0.0503684211,0.727894737 0.69,0.0884210526 1.47947368,0.0884210526 C2.26894737,0.0884210526 2.90842105,0.727894737 2.90842105,1.51736842 C2.90842105,2.30684211 2.26894737,2.94789474 1.47947368,2.94789474 Z" id="path-5"></path>
        <path d="M1.54,2.85857143 C0.76,2.85857143 0.128571429,2.22571429 0.128571429,1.44714286 C0.128571429,0.667142857 0.76,0.0357142857 1.54,0.0357142857 C2.31857143,0.0357142857 2.95,0.667142857 2.95,1.44714286 C2.95,2.22571429 2.31857143,2.85857143 1.54,2.85857143 Z" id="path-7"></path>
        <path d="M1.43595,2.9175 C0.6519,2.9175 0.01635,2.283 0.01635,1.4985 C0.01635,0.714 0.6519,0.078 1.43595,0.078 C2.22015,0.078 2.8557,0.714 2.8557,1.4985 C2.8557,2.283 2.22015,2.9175 1.43595,2.9175 Z" id="path-9"></path>
        <path d="M1.527,2.8965 C0.7605,2.8965 0.138,2.274 0.138,1.5075 C0.138,0.7395 0.7605,0.1185 1.527,0.1185 C2.295,0.1185 2.916,0.7395 2.916,1.5075 C2.916,2.274 2.295,2.8965 1.527,2.8965 Z" id="path-11"></path>
        <path d="M1.5655,2.91333333 C0.788833333,2.91333333 0.159333333,2.28333333 0.159333333,1.50666667 C0.159333333,0.73 0.788833333,0.101666667 1.5655,0.101666667 C2.34183333,0.101666667 2.97133333,0.73 2.97133333,1.50666667 C2.97133333,2.28333333 2.34183333,2.91333333 1.5655,2.91333333 Z" id="path-13"></path>
        <path d="M2.05773913,3.99130435 C0.990608696,3.99130435 0.125565217,3.12695652 0.125565217,2.05913043 C0.125565217,0.991304348 0.990608696,0.126956522 2.05773913,0.126956522 C3.12504348,0.126956522 3.99008696,0.991304348 3.99008696,2.05913043 C3.99008696,3.12695652 3.12504348,3.99130435 2.05773913,3.99130435 Z" id="path-15"></path>
        <path d="M1.98153846,3.93538462 C0.933846154,3.93538462 0.0830769231,3.08461538 0.0830769231,2.03692308 C0.0830769231,0.987692308 0.933846154,0.136923077 1.98153846,0.136923077 C3.03076923,0.136923077 3.88153846,0.987692308 3.88153846,2.03692308 C3.88153846,3.08461538 3.03076923,3.93538462 1.98153846,3.93538462 Z" id="path-17"></path>
        <path d="M1.94833333,3.85 C0.886666667,3.85 0.0283333333,2.99 0.0283333333,1.93 C0.0283333333,0.868333333 0.886666667,0.01 1.94833333,0.01 C3.00833333,0.01 3.86833333,0.868333333 3.86833333,1.93 C3.86833333,2.99 3.00833333,3.85 1.94833333,3.85 Z" id="path-19"></path>
        <path d="M1.50473684,2.8575 C0.683684211,2.8575 0.0173684211,2.2245 0.0173684211,1.4445 C0.0173684211,0.6645 0.683684211,0.033 1.50473684,0.033 C2.32421053,0.033 2.99052632,0.6645 2.99052632,1.4445 C2.99052632,2.2245 2.32421053,2.8575 1.50473684,2.8575 Z" id="path-21"></path>
        <path d="M1.51285714,3.92363636 C0.697142857,3.92363636 0.0357142857,3.08181818 0.0357142857,2.04363636 C0.0357142857,1.00545455 0.697142857,0.163636364 1.51285714,0.163636364 C2.32857143,0.163636364 2.99,1.00545455 2.99,2.04363636 C2.99,3.08181818 2.32857143,3.92363636 1.51285714,3.92363636 Z" id="path-23"></path>
        <path d="M1.97666667,3.885 C0.916666667,3.885 0.0566666667,3.02666667 0.0566666667,1.965 C0.0566666667,0.905 0.916666667,0.045 1.97666667,0.045 C3.03833333,0.045 3.89833333,0.905 3.89833333,1.965 C3.89833333,3.02666667 3.03833333,3.885 1.97666667,3.885 Z" id="path-25"></path>
        <path d="M1.944,3.9072 C0.8896,3.9072 0.0352,3.0512 0.0352,1.9968 C0.0352,0.9424 0.8896,0.088 1.944,0.088 C3,0.088 3.8544,0.9424 3.8544,1.9968 C3.8544,3.0512 3,3.9072 1.944,3.9072 Z" id="path-27"></path>
        <path d="M2.02246154,3.9536 C0.973384615,3.9536 0.123230769,3.0688 0.123230769,1.9776 C0.123230769,0.888 0.973384615,0.0032 2.02246154,0.0032 C3.07138462,0.0032 3.92184615,0.888 3.92184615,1.9776 C3.92184615,3.0688 3.07138462,3.9536 2.02246154,3.9536 Z" id="path-29"></path>
        <path d="M1.95553846,3.92923077 C0.906615385,3.92923077 0.0563076923,3.08 0.0563076923,2.03076923 C0.0563076923,0.981538462 0.906615385,0.130769231 1.95553846,0.130769231 C3.00446154,0.130769231 3.85492308,0.981538462 3.85492308,2.03076923 C3.85492308,3.08 3.00446154,3.92923077 1.95553846,3.92923077 Z" id="path-31"></path>
        <path d="M1.99683333,3.86833333 C0.936166667,3.86833333 0.0763333333,3.00833333 0.0763333333,1.94666667 C0.0763333333,0.886666667 0.936166667,0.0266666667 1.99683333,0.0266666667 C3.0575,0.0266666667 3.91733333,0.886666667 3.91733333,1.94666667 C3.91733333,3.00833333 3.0575,3.86833333 1.99683333,3.86833333 Z" id="path-33"></path>
    </defs>
    <g id="Page-1" stroke="none" stroke-width="1" fill="none" fill-rule="evenodd">
        <g id="city2" transform="translate(0.000000, -4.000000)">
            <mask id="mask-2" fill="white">
                <use xlink:href="#path-1"></use>
            </mask>
            <g id="Rectangle"></g>
            <g id="Group" mask="url(#mask-2)">
                <g transform="translate(16.000000, -135.000000)">
                    <g id="Group-36" stroke-width="1" fill="none" transform="translate(170.000000, 137.000000)">
                        <mask id="mask-4" fill="white">
                            <use xlink:href="#path-3"></use>
                        </mask>
                        <g id="Clip-35"></g>
                        <polygon id="Fill-34" mask="url(#mask-4)" points="-173.991 608.55 576.015 608.55 576.015 -141.456 -173.991 -141.456"></polygon>
                    </g>
                    <g id="Group-44" stroke-width="1" fill="none" transform="translate(94.000000, 61.000000)">
                        <path d="M36.2285217,86.6572316 C36.2285217,87.7512549 37.1120467,88.6383441 38.2019461,88.6383441 C39.2920052,88.6383441 40.1755302,87.7512549 40.1755302,86.6572316 C40.1755302,85.5648124 39.2920052,84.6777232 38.2019461,84.6777232 C37.1120467,84.6777232 36.2285217,85.5648124 36.2285217,86.6572316" id="Fill-37" fill="#B4AE82"></path>
                        <path d="M0.0633030402,89.6280983 C0.0633030402,90.4766882 0.748126839,91.16326 1.5928068,91.16326 C2.43748676,91.16326 3.12231056,90.4766882 3.12231056,89.6280983 C3.12231056,88.7811125 2.43748676,88.0945408 1.5928068,88.0945408 C0.748126839,88.0945408 0.0633030402,88.7811125 0.0633030402,89.6280983" id="Fill-39" fill="#B4AE82"></path>
                        <path d="M33.8108571,115.522122 C33.8108571,116.452523 34.5618614,117.206468 35.4883877,117.206468 C36.414914,117.206468 37.1659183,116.452523 37.1659183,115.522122 C37.1659183,114.593325 36.414914,113.839379 35.4883877,113.839379 C34.5618614,113.839379 33.8108571,114.593325 33.8108571,115.522122" id="Fill-40" fill="#B4AE82"></path>
                        <path d="M29.0250834,122.751979 C29.0250834,123.435343 29.5772265,123.988771 30.2585335,123.988771 C30.9396806,123.988771 31.4919837,123.435343 31.4919837,122.751979 C31.4919837,122.067012 30.9396806,121.513583 30.2585335,121.513583 C29.5772265,121.513583 29.0250834,122.067012 29.0250834,122.751979" id="Fill-41" fill="#B4AE82"></path>
                    </g>
                    <g id="Group-77" stroke-width="1" fill="none" transform="translate(320.000000, 153.000000)">
                        <path d="M0.0204435484,13.6623711 C0.0204435484,14.4 0.629032258,14.9984536 1.37915323,14.9984536 C2.12927419,14.9984536 2.7378629,14.4 2.7378629,13.6623711 C2.7378629,12.9247423 2.12927419,12.3262887 1.37915323,12.3262887 C0.629032258,12.3262887 0.0204435484,12.9247423 0.0204435484,13.6623711" id="Fill-74" fill="#B4AE82"></path>
                        <path d="M35.6944355,1.68247423 C35.6944355,2.55309278 36.4115323,3.25824742 37.2968952,3.25824742 C38.1806855,3.25824742 38.8977823,2.55309278 38.8977823,1.68247423 C38.8977823,0.813402062 38.1806855,0.108247423 37.2968952,0.108247423 C36.4115323,0.108247423 35.6944355,0.813402062 35.6944355,1.68247423" id="Fill-76" fill="#B4AE82"></path>
                    </g>
                    <path d="M141.887008,230.553094 C141.887008,231.551799 142.695057,232.360576 143.691804,232.360576 C144.68855,232.360576 145.495967,231.551799 145.495967,230.553094 C145.495967,229.555971 144.68855,228.745612 143.691804,228.745612 C142.695057,228.745612 141.887008,229.555971 141.887008,230.553094" id="Fill-81" fill="#B4AE82"></path>
                    <path d="M125.123902,264.211511 C125.123902,265.146906 125.880905,265.905036 126.814752,265.905036 C127.748757,265.905036 128.50576,265.146906 128.50576,264.211511 C128.50576,263.276115 127.748757,262.517986 126.814752,262.517986 C125.880905,262.517986 125.123902,263.276115 125.123902,264.211511" id="Fill-83" fill="#B4AE82"></path>
                    <path d="M179.233951,223.828058 C179.233951,224.836259 180.049428,225.65295 181.05455,225.65295 C182.061253,225.65295 182.87673,224.836259 182.87673,223.828058 C182.87673,222.821439 182.061253,222.004748 181.05455,222.004748 C180.049428,222.004748 179.233951,222.821439 179.233951,223.828058" id="Fill-84" fill="#B4AE82"></path>
                    <path d="M111.027895,359.234737 C111.027895,360.177368 111.80334,360.941579 112.759782,360.941579 C113.716223,360.941579 114.491509,360.177368 114.491509,359.234737 C114.491509,358.293684 113.716223,357.529474 112.759782,357.529474 C111.80334,357.529474 111.027895,358.293684 111.027895,359.234737" id="Fill-89" fill="#B4AE82"></path>
                    <path d="M187.39046,333.18 C187.39046,334.23 188.25456,335.081053 189.320657,335.081053 C190.386754,335.081053 191.250854,334.23 191.250854,333.18 C191.250854,332.131579 190.386754,331.280526 189.320657,331.280526 C188.25456,331.280526 187.39046,332.131579 187.39046,333.18" id="Fill-91" fill="#B4AE82"></path>
                    <path d="M181.586859,289.644737 C181.586859,290.99 182.694639,292.081053 184.060526,292.081053 C185.426413,292.081053 186.534192,290.99 186.534192,289.644737 C186.534192,288.299474 185.426413,287.208421 184.060526,287.208421 C182.694639,287.208421 181.586859,288.299474 181.586859,289.644737" id="Fill-92" fill="#B4AE82"></path>
                    <path d="M159.567543,311.866316 C159.567543,312.621053 160.187963,313.230526 160.954271,313.230526 C161.718975,313.230526 162.339396,312.621053 162.339396,311.866316 C162.339396,311.113158 161.718975,310.502105 160.954271,310.502105 C160.187963,310.502105 159.567543,311.113158 159.567543,311.866316" id="Fill-93" fill="#B4AE82"></path>
                    <path d="M238.962024,305.629474 C238.962024,306.453684 239.641761,307.123158 240.478607,307.123158 C241.317057,307.123158 241.996794,306.453684 241.996794,305.629474 C241.996794,304.803684 241.317057,304.134211 240.478607,304.134211 C239.641761,304.134211 238.962024,304.803684 238.962024,305.629474" id="Fill-94" fill="#B4AE82"></path>
                    <path d="M301.496109,264.65969 C301.496109,265.530269 302.202104,266.236316 303.074217,266.236316 C303.944731,266.236316 304.650727,265.530269 304.650727,264.65969 C304.650727,263.787514 303.944731,263.081467 303.074217,263.081467 C302.202104,263.081467 301.496109,263.787514 301.496109,264.65969" id="Fill-105" fill="#B4AE82"></path>
                    <path d="M307.148864,318.530139 C307.148864,319.311263 307.781385,319.94383 308.562453,319.94383 C309.341923,319.94383 309.976041,319.311263 309.976041,318.530139 C309.976041,317.749014 309.341923,317.116447 308.562453,317.116447 C307.781385,317.116447 307.148864,317.749014 307.148864,318.530139" id="Fill-107" fill="#B4AE82"></path>
                    <path d="M252.40888,355.605901 C252.40888,356.549959 253.173974,357.31511 254.117964,357.31511 C255.061953,357.31511 255.827048,356.549959 255.827048,355.605901 C255.827048,354.661842 255.061953,353.896691 254.117964,353.896691 C253.173974,353.896691 252.40888,354.661842 252.40888,355.605901" id="Fill-108" fill="#B4AE82"></path>
                    <path d="M278.593316,255.787351 C278.593316,256.985395 279.564459,257.95661 280.762415,257.95661 C281.960371,257.95661 282.931514,256.985395 282.931514,255.787351 C282.931514,254.589307 281.960371,253.618093 280.762415,253.618093 C279.564459,253.618093 278.593316,254.589307 278.593316,255.787351" id="Fill-109" fill="#B4AE82"></path>
                    <path d="M114.124428,306.686976 C114.124428,307.88502 115.095731,308.856235 116.293687,308.856235 C117.491643,308.856235 118.462786,307.88502 118.462786,306.686976 C118.462786,305.488932 117.491643,304.517718 116.293687,304.517718 C115.095731,304.517718 114.124428,305.488932 114.124428,306.686976" id="Fill-110" fill="#B4AE82"></path>
                    <path d="M322.141844,210.830779 C322.141844,211.795022 322.919594,212.576667 323.879031,212.576667 C324.840063,212.576667 325.617813,211.795022 325.617813,210.830779 C325.617813,209.864935 324.840063,209.08329 323.879031,209.08329 C322.919594,209.08329 322.141844,209.864935 322.141844,210.830779" id="Fill-115" fill="#B4AE82"></path>
                    <path d="M353.167031,241.952987 C353.167031,243.008528 354.018094,243.863853 355.068375,243.863853 C356.118656,243.863853 356.971313,243.008528 356.971313,241.952987 C356.971313,240.897446 356.118656,240.040519 355.068375,240.040519 C354.018094,240.040519 353.167031,240.897446 353.167031,241.952987" id="Fill-117" fill="#B4AE82"></path>
                    <path d="M539.07003,249.299429 C539.07003,250.206286 539.752823,250.94 540.593183,250.94 C541.435135,250.94 542.116336,250.206286 542.116336,249.299429 C542.116336,248.394286 541.435135,247.658857 540.593183,247.658857 C539.752823,247.658857 539.07003,248.394286 539.07003,249.299429" id="Fill-132" fill="#B4AE82"></path>
                    <path d="M589.127177,246.494857 C589.127177,247.314286 589.743123,247.977714 590.502312,247.977714 C591.261502,247.977714 591.877447,247.314286 591.877447,246.494857 C591.877447,245.677143 591.261502,245.013714 590.502312,245.013714 C589.743123,245.013714 589.127177,245.677143 589.127177,246.494857" id="Fill-134" fill="#B4AE82"></path>
                    <g id="Group-138" stroke-width="1" fill="none" transform="translate(646.000000, 256.000000)">
                        <mask id="mask-6" fill="white">
                            <use xlink:href="#path-5"></use>
                        </mask>
                        <g id="Clip-137"></g>
                        <polygon id="Fill-136" mask="url(#mask-6)" points="-652.885263 523.736842 136.594737 523.736842 136.594737 -265.743158 -652.885263 -265.743158"></polygon>
                    </g>
                    <path d="M490,184.500792 C490,185.328051 490.671949,186 491.500792,186 C492.328051,186 493,185.328051 493,184.500792 C493,183.671949 492.328051,183 491.500792,183 C490.671949,183 490,183.671949 490,184.500792" id="Fill-148" fill="#B4AE82"></path>
                    <g id="Group-155" stroke-width="1" fill="none" transform="translate(446.000000, 162.000000)">
                        <mask id="mask-8" fill="white">
                            <use xlink:href="#path-7"></use>
                        </mask>
                        <g id="Clip-154"></g>
                        <polygon id="Fill-153" mask="url(#mask-8)" points="-411.991429 557 302.3 557 302.3 -157.291429 -411.991429 -157.291429"></polygon>
                    </g>
                    <g id="Group-176" stroke-width="1" fill="none" transform="translate(2.000000, 282.000000)">
                        <mask id="mask-10" fill="white">
                            <use xlink:href="#path-9"></use>
                        </mask>
                        <g id="Clip-175"></g>
                        <polygon id="Fill-174" mask="url(#mask-10)" points="-15.741 472.5 734.265 472.5 734.265 -277.506 -15.741 -277.506"></polygon>
                    </g>
                    <path d="M47.0105568,302.31395 C47.0105568,303.187427 47.7178641,303.897427 48.5904017,303.897427 C49.4627793,303.897427 50.1700866,303.187427 50.1700866,302.31395 C50.1700866,301.438871 49.4627793,300.730474 48.5904017,300.730474 C47.7178641,300.730474 47.0105568,301.438871 47.0105568,302.31395" id="Fill-177" fill="#B4AE82"></path>
                    <path d="M98.0982321,250.011151 C98.0982321,250.958352 98.8645616,251.72605 99.8097174,251.72605 C100.754873,251.72605 101.521043,250.958352 101.521043,250.011151 C101.521043,249.06395 100.754873,248.296253 99.8097174,248.296253 C98.8645616,248.296253 98.0982321,249.06395 98.0982321,250.011151" id="Fill-179" fill="#B4AE82"></path>
                    <g id="Group-218" stroke-width="1" fill="none" transform="translate(722.000000, 153.000000)">
                        <mask id="mask-12" fill="white">
                            <use xlink:href="#path-11"></use>
                        </mask>
                        <g id="Clip-217"></g>
                        <polygon id="Fill-216" mask="url(#mask-12)" points="-690.891 593.85 59.115 593.85 59.115 -156.156 -690.891 -156.156"></polygon>
                    </g>
                    <g id="Group-221" stroke-width="1" fill="none" transform="translate(58.000000, 230.000000)">
                        <mask id="mask-14" fill="white">
                            <use xlink:href="#path-13"></use>
                        </mask>
                        <g id="Clip-220"></g>
                        <polygon id="Fill-219" mask="url(#mask-14)" points="-76.1566667 579.333333 757.183333 579.333333 757.183333 -254.006667 -76.1566667 -254.006667"></polygon>
                    </g>
                    <path d="M7,358.999147 C7,360.104478 7.89542567,361 8.99991474,361 C10.1045743,361 11,360.104478 11,358.999147 C11,357.895522 10.1045743,357 8.99991474,357 C7.89542567,357 7,357.895522 7,358.999147" id="Fill-222" fill="#B4AE82"></path>
                    <g id="Group-226" stroke-width="1" fill="none" transform="translate(49.000000, 388.000000)">
                        <mask id="mask-16" fill="white">
                            <use xlink:href="#path-15"></use>
                        </mask>
                        <g id="Clip-225"></g>
                        <polygon id="Fill-224" mask="url(#mask-16)" points="-70.5982609 433.565217 798.973913 433.565217 798.973913 -436.006957 -70.5982609 -436.006957"></polygon>
                    </g>
                    <path d="M3.11932979,318.213707 C3.11932979,319.115167 3.84874513,319.845302 4.74851734,319.845302 C5.64828955,319.845302 6.37770488,319.115167 6.37770488,318.213707 C6.37770488,317.313848 5.64828955,316.583713 4.74851734,316.583713 C3.84874513,316.583713 3.11932979,317.313848 3.11932979,318.213707" id="Fill-236" fill="#B4AE82"></path>
                    <path d="M38.2414781,339.491695 C38.2414781,340.311496 38.9045103,340.974381 39.7225432,340.974381 C40.5405761,340.974381 41.2036082,340.311496 41.2036082,339.491695 C41.2036082,338.673496 40.5405761,338.009009 39.7225432,338.009009 C38.9045103,338.009009 38.2414781,338.673496 38.2414781,339.491695" id="Fill-238" fill="#B4AE82"></path>
                    <path d="M692.178154,176.538727 C692.178154,177.302487 692.795758,177.922141 693.560364,177.922141 C694.323371,177.922141 694.942415,177.302487 694.942415,176.538727 C694.942415,175.774968 694.323371,175.155314 693.560364,175.155314 C692.795758,175.155314 692.178154,175.774968 692.178154,176.538727" id="Fill-239" fill="#B4AE82"></path>
                    <g id="Group-243" stroke-width="1" fill="none" transform="translate(626.000000, 165.000000)">
                        <mask id="mask-18" fill="white">
                            <use xlink:href="#path-17"></use>
                        </mask>
                        <g id="Clip-242"></g>
                        <polygon id="Fill-241" mask="url(#mask-18)" points="-616.452308 597.538462 152.784615 597.538462 152.784615 -171.698462 -616.452308 -171.698462"></polygon>
                    </g>
                    <path d="M614,156.9991 C614,158.103914 614.89649,159 616,159 C617.105311,159 618,158.103914 618,156.9991 C618,155.896086 617.105311,155 616,155 C614.89649,155 614,155.896086 614,156.9991" id="Fill-244" fill="#B4AE82"></path>
                    <g id="Group-254" stroke-width="1" fill="none" transform="translate(632.000000, 385.000000)">
                        <mask id="mask-20" fill="white">
                            <use xlink:href="#path-19"></use>
                        </mask>
                        <g id="Clip-253"></g>
                        <polygon id="Fill-252" mask="url(#mask-20)" points="-673.99 417.666667 159.35 417.666667 159.35 -415.673333 -673.99 -415.673333"></polygon>
                    </g>
                    <g id="Group-259" stroke-width="1" fill="none" transform="translate(662.000000, 295.000000)">
                        <path d="M58.5206684,47.1996091 C58.5206684,48.1524756 59.2920823,48.9249837 60.2420051,48.9249837 C61.1933625,48.9249837 61.9633419,48.1524756 61.9633419,47.1996091 C61.9633419,46.2483388 61.1933625,45.4758306 60.2420051,45.4758306 C59.2920823,45.4758306 58.5206684,46.2483388 58.5206684,47.1996091" id="Fill-255" fill="#B4AE82"></path>
                        <path d="M10.8906427,5.93107492 C10.8906427,6.7881759 11.5839589,7.48247557 12.4398458,7.48247557 C13.2957326,7.48247557 13.9890488,6.7881759 13.9890488,5.93107492 C13.9890488,5.07397394 13.2957326,4.37967427 12.4398458,4.37967427 C11.5839589,4.37967427 10.8906427,5.07397394 10.8906427,5.93107492" id="Fill-257" fill="#B4AE82"></path>
                        <path d="M0.153007712,1.3981759 C0.153007712,2.11960912 0.737943445,2.7037785 1.45676093,2.7037785 C2.17717224,2.7037785 2.76051414,2.11960912 2.76051414,1.3981759 C2.76051414,0.678338762 2.17717224,0.0925732899 1.45676093,0.0925732899 C0.737943445,0.0925732899 0.153007712,0.678338762 0.153007712,1.3981759" id="Fill-258" fill="#B4AE82"></path>
                    </g>
                    <g id="Group-262" stroke-width="1" fill="none" transform="translate(678.000000, 280.000000)">
                        <mask id="mask-22" fill="white">
                            <use xlink:href="#path-21"></use>
                        </mask>
                        <g id="Clip-261"></g>
                        <polygon id="Fill-260" mask="url(#mask-22)" points="-684.464211 474.15 105.015789 474.15 105.015789 -275.856 -684.464211 -275.856"></polygon>
                    </g>
                    <g id="Group-265" stroke-width="1" fill="none" transform="translate(697.000000, 276.000000)">
                        <mask id="mask-24" fill="white">
                            <use xlink:href="#path-23"></use>
                        </mask>
                        <g id="Clip-264"></g>
                        <polygon id="Fill-263" mask="url(#mask-24)" points="-636.277143 579.818182 78.0142857 579.818182 78.0142857 -329.28 -636.277143 -329.28"></polygon>
                    </g>
                    <g id="Group-269" stroke-width="1" fill="none" transform="translate(708.000000, 279.000000)">
                        <path d="M0.143617021,27.2065363 C0.143617021,28.1931844 0.931914894,28.9935196 1.9037234,28.9935196 C2.87553191,28.9935196 3.66382979,28.1931844 3.66382979,27.2065363 C3.66382979,26.2182682 2.87553191,25.417933 1.9037234,25.417933 C0.931914894,25.417933 0.143617021,26.2182682 0.143617021,27.2065363" id="Fill-266" fill="#B4AE82"></path>
                        <path d="M71.1398936,1.96195531 C71.1398936,3.03122905 71.9918617,3.89636872 73.043617,3.89636872 C74.0952128,3.89636872 74.9473404,3.03122905 74.9473404,1.96195531 C74.9473404,0.894301676 74.0952128,0.0291620112 73.043617,0.0291620112 C71.9918617,0.0291620112 71.1398936,0.894301676 71.1398936,1.96195531" id="Fill-268" fill="#B4AE82"></path>
                    </g>
                    <g id="Group-272" stroke-width="1" fill="none" transform="translate(769.000000, 197.000000)">
                        <mask id="mask-26" fill="white">
                            <use xlink:href="#path-25"></use>
                        </mask>
                        <g id="Clip-271"></g>
                        <polygon id="Fill-270" mask="url(#mask-26)" points="-816.656667 612.833333 16.6833333 612.833333 16.6833333 -220.506667 -816.656667 -220.506667"></polygon>
                    </g>
                    <path d="M725,390.000868 C725,391.104555 725.895445,392 727.000868,392 C728.104555,392 729,391.104555 729,390.000868 C729,388.895445 728.104555,388 727.000868,388 C725.895445,388 725,388.895445 725,390.000868" id="Fill-273" fill="#B4AE82"></path>
                    <g id="Group-277" stroke-width="1" fill="none" transform="translate(738.000000, 193.000000)">
                        <mask id="mask-28" fill="white">
                            <use xlink:href="#path-27"></use>
                        </mask>
                        <g id="Clip-276"></g>
                        <polygon id="Fill-275" mask="url(#mask-28)" points="-752.4704 592.48 47.536 592.48 47.536 -207.5264 -752.4704 -207.5264"></polygon>
                    </g>
                    <g id="Group-295" stroke-width="1" fill="none" transform="translate(20.000000, 118.000000)">
                        <path d="M54.6605385,65.2218616 C54.6605385,66.1221241 55.3871319,66.8512888 56.2834231,66.8512888 C57.1797143,66.8512888 57.9063077,66.1221241 57.9063077,65.2218616 C57.9063077,64.321599 57.1797143,63.5924344 56.2834231,63.5924344 C55.3871319,63.5924344 54.6605385,64.321599 54.6605385,65.2218616" id="Fill-294" fill="#B4AE82"></path>
                    </g>
                    <g id="Group-298" stroke-width="1" fill="none" transform="translate(10.000000, 167.000000)">
                        <mask id="mask-30" fill="white">
                            <use xlink:href="#path-29"></use>
                        </mask>
                        <g id="Clip-297"></g>
                        <polygon id="Fill-296" mask="url(#mask-30)" points="-24.6061538 618.56 744.630769 618.56 744.630769 -181.4464 -24.6061538 -181.4464"></polygon>
                    </g>
                    <g id="Group-301" stroke-width="1" fill="none" transform="translate(84.000000, 197.000000)">
                        <mask id="mask-32" fill="white">
                            <use xlink:href="#path-31"></use>
                        </mask>
                        <g id="Clip-300"></g>
                        <polygon id="Fill-299" mask="url(#mask-32)" points="-94.76 566.153846 674.476923 566.153846 674.476923 -203.083077 -94.76 -203.083077"></polygon>
                    </g>
                    <path d="M55,140.5 C55,141.328491 55.6716345,142 56.500081,142 C57.3283655,142 58,141.328491 58,140.5 C58,139.671509 57.3283655,139 56.500081,139 C55.6716345,139 55,139.671509 55,140.5" id="Fill-302" fill="#B4AE82"></path>
                    <g id="Group-306" stroke-width="1" fill="none" transform="translate(0.000000, 242.000000)">
                        <mask id="mask-34" fill="white">
                            <use xlink:href="#path-33"></use>
                        </mask>
                        <g id="Clip-305"></g>
                        <polygon id="Fill-304" mask="url(#mask-34)" points="-15.1566667 567.333333 818.183333 567.333333 818.183333 -266.006667 -15.1566667 -266.006667"></polygon>
                    </g>
                    <path d="M698.370994,249.202976 C698.370994,250.180277 699.167293,250.971349 700.15105,250.971349 C701.134807,250.971349 701.931105,250.180277 701.931105,249.202976 C701.931105,248.225675 701.134807,247.434602 700.15105,247.434602 C699.167293,247.434602 698.370994,248.225675 698.370994,249.202976" id="Fill-307" fill="#B4AE82"></path>
                    <path d="M615.112155,207.101038 C615.112155,208.186574 615.996575,209.066782 617.089282,209.066782 C618.181989,209.066782 619.068011,208.186574 619.068011,207.101038 C619.068011,206.017093 618.181989,205.136886 617.089282,205.136886 C615.996575,205.136886 615.112155,206.017093 615.112155,207.101038" id="Fill-309" fill="#B4AE82"></path>
                </g>
            </g>
            <g id="Group-547" mask="url(#mask-2)" fill="#1A3352" opacity="0.6">
                <g transform="translate(0.000000, 77.000000)" id="Combined-Shape">
                    <path d="M549.64,110.792202 L549.64,55.7033727 L552.3664,55.7033727 L556.7872,46.9040069 L578.6272,46.9040069 L586.12,55.7033727 L586.12,116.019026 L591.56,116.019026 L591.56,134.897665 L594.28,134.897665 L594.28,179.694436 L608.84,179.694436 L608.84,143.857019 L620.04,143.857019 L620.04,118.898818 L624.9488,118.898818 L628.944,110.899395 L631.56,110.899395 L631.56,102.100029 L637.96,102.100029 L637.96,95.4205102 L641.48,95.4205102 L641.48,102.100029 L648.52,102.100029 L650.784,110.899395 L655.4688,118.898818 L661.16,118.898818 L661.16,164.175555 L709,164.175555 L709,189.133756 L714.92,189.133756 L714.92,203.052753 L721.32,203.052753 L721.32,193.133468 L727.08,193.133468 L727.08,187.053906 L738.44,187.053906 L738.44,196.973191 L743.56,196.973191 L743.56,199.533007 L753.8,199.533007 L753.8,208.812338 L769.48,208.812338 L769.48,198.413087 L800,198.413087 L800,380 L608.84,379.840012 L594.28,380 L536.68,379.840012 L520.84,380 L0,380 L0,170.415105 L27.72,170.415105 L27.72,157.936005 L44.36,157.936005 L44.36,172.814932 L57.32,172.814932 L57.32,184.654079 L72.68,184.654079 L72.68,170.415105 L93.8,170.415105 L93.8,142.897088 L100.68,142.897088 L100.68,136.657538 L112.04,136.657538 L112.04,142.897088 L120.52,142.897088 L120.52,154.736235 L144.52,154.736235 L144.52,112.979245 L154.44,112.979245 L154.44,101.887244 L159.13328,101.887244 L159.13328,112.979245 L171.72,112.979245 L171.72,108.60676 L176.4128,108.60676 L176.4128,112.979245 L190.76,112.979245 L190.76,133.137792 L209.96,133.137792 L209.96,146.576823 L221.8,146.576823 L221.8,109.785241 L236.68,109.785241 L236.68,45.469876 L247.56,45.469876 L247.56,109.785241 L262.6,109.785241 L262.6,159.855866 L278.6,159.855866 L278.6,75.0619775 L287.4,75.0619775 L287.4,70.102335 L308.2,70.102335 L308.2,75.0619775 L317.16,75.0619775 L317.16,148.176708 L329.48,148.176708 L329.48,34.9048717 L336.68,34.9048717 L336.68,29.1452868 L362.36,29.1452868 L362.36,34.9048717 L371.4,34.9048717 L371.4,102.100029 L377.48,102.100029 L377.48,3.86710868 L381,3.86710868 L381,0.0273854137 L399.24,0.0273854137 L399.24,3.86710868 L413.96,3.86710868 L413.96,0.0273854137 L432.2,0.0273854137 L432.2,3.86710868 L436.68,3.86710868 L436.68,62.9028538 L442.12,62.9028538 L442.12,53.3035457 L448.84,53.3035457 L448.84,51.0637071 L454.6,51.0637071 L454.6,40.8244451 L464.84,40.8244451 L464.84,51.0637071 L471.4,51.0637071 L471.4,53.3035457 L478.12,53.3035457 L478.12,97.9403286 L481.96,97.9403286 L481.96,94.4205823 L491.88,94.4205823 L491.88,97.9403286 L496.52,97.9403286 L496.52,141.937158 L500.84,141.937158 L500.84,85.4820265 L515.16,68.5024503 L527.9872,68.5024503 L527.9872,61.5061545 L533.8528,61.5061545 L533.8528,68.5024503 L537.8,68.5024503 L537.8,110.792202 L549.64,110.792202 Z"></path>
                </g>
            </g>
        </g>
    </g>
</svg>