<?xml version="1.0" encoding="UTF-8"?>
<svg width="500px" height="77px" viewBox="0 0 500 77" version="1.1" xmlns="http://www.w3.org/2000/svg" xmlns:xlink="http://www.w3.org/1999/xlink">
    <!-- Generator: Sketch 47.1 (45422) - http://www.bohemiancoding.com/sketch -->
    <title>hills</title>
    <desc>Created with Sketch.</desc>
    <defs>
        <radialGradient cx="50.7850111%" cy="100%" fx="50.7850111%" fy="100%" r="100%" gradientTransform="translate(0.507850,1.000000),scale(0.140000,1.000000),rotate(-89.999990),scale(1.000000,1.589991),translate(-0.507850,-1.000000)" id="radialGradient-1">
            <stop stop-color="#4F8EDB" offset="0%"></stop>
            <stop stop-color="#DBE8F7" offset="100%"></stop>
        </radialGradient>
        <radialGradient cx="14.4785449%" cy="100%" fx="14.4785449%" fy="100%" r="97.0603868%" gradientTransform="translate(0.144785,1.000000),scale(0.489510,1.000000),rotate(-90.000000),scale(1.000000,1.359261),translate(-0.144785,-1.000000)" id="radialGradient-2">
            <stop stop-color="#4F8EDB" offset="0%"></stop>
            <stop stop-color="#DBE8F7" offset="100%"></stop>
        </radialGradient>
    </defs>
    <g id="Page-1" stroke="none" stroke-width="1" fill="none" fill-rule="evenodd">
        <g id="hills" fill-rule="nonzero">
            <path d="M375,26 C338,26 292.5,7 250,7 C207.5,7 162,26 125,26 C88,26 42.5,7 0,7 L0,77 L250,77 L500,77 L500,7 C457.5,7 412,26 375,26 Z" id="Shape" fill="url(#radialGradient-1)"></path>
            <path d="M124.56446,26 C87.6933798,26 42.3519164,7 0,7 L0,77 L124.56446,77 C149.14518,43 149.14518,26 124.56446,26 Z" id="Shape-Copy" fill="url(#radialGradient-2)"></path>
            <g id="Group-2" transform="translate(19.000000, 0.000000)" fill-opacity="0.5" fill="#000000" opacity="0.5">
                <polygon id="Shape-Copy-4" points="191.373326 3.551335 189.773326 10.051335 191.173326 10.051335 191.173326 11.951335 191.373326 11.951335 191.573326 11.951335 191.573326 10.051335 193.073326 10.051335"></polygon>
                <polygon id="Shape-Copy-3" points="187.8 4 186.2 10.5 187.6 10.5 187.6 12.4 187.8 12.4 188 12.4 188 10.5 189.4 10.5"></polygon>
                <polygon id="Shape-Copy-2" points="2.4 0.3 0.7 6.8 2.2 6.8 2.2 8.7 2.4 8.7 2.6 8.7 2.6 6.8 4 6.8"></polygon>
            </g>
            <polygon id="Shape" fill="#DBE8F7" points="210.373326 3.551335 208.773326 10.051335 210.173326 10.051335 210.173326 11.951335 210.373326 11.951335 210.573326 11.951335 210.573326 10.051335 212.073326 10.051335"></polygon>
            <polygon id="Shape-Copy-5" fill="#2C2F36" points="210.173326 10.051335 210.173326 11.951335 210.373326 11.951335 210.573326 11.951335 210.573326 10.051335"></polygon>
            <polygon id="Shape" fill="#DBE8F7" points="206.8 4 205.2 10.5 206.6 10.5 206.6 12.4 206.8 12.4 207 12.4 207 10.5 208.4 10.5"></polygon>
            <polygon id="Shape-Copy-6" fill="#2C2F36" points="206.6 10.5 206.6 12.4 206.8 12.4 207 12.4 207 10.5"></polygon>
            <polygon id="Shape" fill="#DBE8F7" points="21.4 0.3 19.7 6.8 21.2 6.8 21.2 8.7 21.4 8.7 21.6 8.7 21.6 6.8 23 6.8"></polygon>
            <polygon id="Shape-Copy-7" fill="#2C2F36" points="21.2 6.8 21.2 8.7 21.4 8.7 21.6 8.7 21.6 6.8"></polygon>
        </g>
    </g>
</svg>