<?xml version="1.0" encoding="UTF-8"?>
<svg width="500px" height="251px" viewBox="0 0 500 251" version="1.1" xmlns="http://www.w3.org/2000/svg" xmlns:xlink="http://www.w3.org/1999/xlink">
    <!-- Generator: Sketch 47.1 (45422) - http://www.bohemiancoding.com/sketch -->
    <title>new-york</title>
    <desc>Created with Sketch.</desc>
    <defs></defs>
    <g id="Page-1" stroke="none" stroke-width="1" fill="none" fill-rule="evenodd">
        <g id="new-york" transform="translate(0.000000, -10.000000)" fill="#1A3352">
            <path d="M494.340796,188.376398 L494.340796,185.64212 L492.123658,185.723165 L492.156461,183.542689 L490.060889,183.500237 L490.060889,177.99309 L488.640686,176.370276 L485.140347,175.557904 L485.275421,174.048938 L487.220482,174.08753 L487.270653,173.072548 L488.588586,172.615227 L488.893467,171.345534 L489.148177,161.65882 C489.148177,161.65882 493.613328,156.431468 493.458958,156.431468 C493.306517,156.431468 490.769061,153.18584 490.769061,153.18584 L488.283705,155.215805 L485.545568,149.903549 L483.110383,149.903549 L481.352495,147.553267 L482.776558,145.982553 L482.927068,143.595607 L485.514694,143.240556 L483.131608,142.532384 L485.514694,141.110251 L482.419577,141.009911 L484.196761,138.927846 L481.304254,140.40015 L481.051473,137.762353 L479.833881,140.247709 L477.296425,138.775406 L478.157037,141.260762 L476.329683,141.009911 L476.329683,139.161331 L475.721851,132.17995 L474.579514,130.58801 L476.686663,130.204015 L476.686663,128.324561 L474.654769,127.564289 L476.179172,126.804017 L476.179172,125.281543 L475.621511,124.399705 L474.961579,122.948628 L475.83184,121.123203 L475.83184,119.80141 L472.321853,124.399705 L472.321853,126.296526 L472.931615,127.016276 L471.864532,128.27632 L471.864532,130.304355 L472.786893,133.15634 L473.950456,135.52013 L472.071002,144.081873 L472.071002,147.48573 L473.145803,148.381076 L473.145803,152.143843 L474.056585,154.092763 L473.145803,159.127153 L473.145803,161.099229 L474.355677,162.042815 L474.222533,166.114323 L475.05999,170.600699 L474.222533,173.815453 L474.222533,183.216583 L472.474294,183.17992 L472.474294,185.671065 L470.014023,185.64212 L470.560106,188.648475 L472.636382,188.636897 L470.289959,193.026792 C470.289959,193.026792 469.193932,185.094107 460.171009,180.173565 C459.3432,179.722033 458.52504,179.347686 457.714597,179.008072 C453.604498,173.950527 445.820393,174.888324 445.820393,174.888324 L445.820393,170.839973 L444.189861,171.339745 C443.705525,169.616591 442.821757,168.69809 442.03833,168.207965 L442.03833,139.879151 L431.884647,139.879151 L431.884647,160.761545 L431.188052,169.523969 L428.052413,169.921471 L428.052413,89.1744138 L415.17796,89.014255 L415.17796,154.042593 C413.906337,154.2124 412.771718,154.644636 411.83971,155.128972 L411.83971,96.009143 L402.380692,86.5520544 L391.019064,95.8624915 L391.161856,146.654062 C389.457998,146.445662 387.954821,146.690725 386.677409,147.155764 L386.677409,51.363426 L380.325086,51.2881707 L380.213168,49.9760262 L385.172302,50.012689 L386.677409,49.3160947 L386.677409,48.2219977 L385.471394,47.2359597 L380.105109,47.1259711 L379.22906,10 L378.30091,47.1356192 L372.658689,47.1356192 L371.452674,48.0020205 L371.562662,49.3160947 L372.876736,49.9760262 L378.30091,49.9760262 L378.30091,51.0276714 L370.997282,51.0276714 L370.997282,143.111272 L368.301597,140.801511 L363.927139,145.723983 L363.927139,151.738622 L362.559035,165.954164 L361.190932,172.331572 L358.263692,172.331572 L358.263692,139.161331 L355.174363,139.161331 L355.174363,128.99414 L349.238839,128.99414 L349.238839,139.161331 L348.46506,148.303891 L339.199004,148.303891 L339.199004,149.812857 C337.93703,149.79742 337.132376,149.783912 337.132376,149.783912 L336.320004,143.572452 L334.633513,143.572452 L334.633513,140.404009 L322.916834,140.404009 L322.916834,155.927836 L318.638857,155.927836 L318.638857,168.418294 L316.508552,168.418294 L316.508552,166.154845 L312.888577,166.154845 L312.888577,164.661316 L311.182789,164.661316 L311.182789,162.53294 L309.052484,162.53294 L309.052484,168.418294 L307.603336,157.479254 L304.595052,139.161331 L301.584838,157.479254 L301.584838,167.870281 L300.550559,135.230686 L284.88008,135.230686 L284.88008,141.868594 L282.635927,141.868594 L282.635927,155.161775 L280.806644,149.783912 L279.345918,155.161775 L275.392118,155.161775 L275.392118,142.933746 L272.408919,142.933746 L272.408919,145.488569 L263.887698,145.488569 L263.887698,143.572452 L259.841276,143.572452 L259.841276,146.341463 L256.856147,146.341463 L256.856147,144.211157 L253.662619,144.211157 L253.662619,155.29299 C252.095764,155.354738 250.345595,155.391401 249.911429,155.264045 C250.152632,156.11308 249.811089,162.008082 249.811089,162.008082 L247.449229,162.008082 L247.449229,169.236455 L245.535041,169.236455 L245.535041,157.753261 L243.348777,153.650879 L241.158654,158.573351 L241.158654,166.778113 L239.539699,166.778113 L239.539699,136.600719 L228.280341,136.600719 L228.280341,141.440217 L227.031874,151.815807 L222.983522,151.815807 L222.983522,137.179607 L215.80339,137.179607 L215.80339,125.412758 L206.672408,125.412758 L206.672408,131.217068 L197.844377,131.217068 L197.844377,154.196963 L197.003061,163.632826 L196.175252,164.460635 L196.175252,92.3254902 L194.502268,92.3254902 L194.502268,80.4583009 L192.829284,80.4583009 L192.829284,75.4374185 L191.15437,75.4374185 L191.15437,73.4595537 L189.328945,73.4595537 L189.328945,70.7194872 L187.806472,71.0243678 L187.806472,69.6562642 C186.89376,69.5038239 186.808856,57.937656 186.89376,55.8092804 C186.988311,53.4242648 184.485588,53.1965691 184.485588,53.1965691 L184.485588,47.1356192 L183.725316,53.1444693 C180.796147,53.2544578 180.655284,55.5043997 180.655284,55.5043997 L180.655284,70.7194872 L178.374468,70.7194872 L178.374468,73.1527434 L176.549044,73.1527434 L176.549044,75.5879292 L174.72169,75.7403696 L174.72169,79.9990503 L173.351656,92.1730499 L172.438944,152.67063 L171.032248,153.793672 L171.032248,155.022842 C170.976932,155.021556 170.929978,156.175471 170.891385,158.484588 L168.913521,158.484588 L168.913521,124.399705 L159.587646,124.399705 L159.587646,161.04134 L154.811826,156.666882 L154.811826,130.790621 L154.811826,126.954528 L152.042815,126.954528 L152.042815,124.399705 L144.752695,124.399705 L144.752695,107.187456 L138.286524,107.187456 L138.286524,142.713769 L132.250659,142.713769 L132.250659,112.700393 L124.408666,112.700393 L124.408666,158.484588 L122.430801,158.484588 L122.430801,155.715577 L119.214118,155.869947 L119.214118,152.012628 L119.023085,149.53692 L116.039886,149.53692 L116.039886,147.406615 L115.082792,127.108897 L104.273037,127.108897 L104.273037,145.702757 L102.154309,145.702757 L102.154309,127.108897 L92.4540881,127.108897 L92.4540881,142.507299 L89.409141,142.507299 L89.409141,148.822959 L88.3169736,148.184254 L86.94887,149.783912 L86.94887,152.282776 L85.582696,166.210804 L83.4369538,166.210804 L83.4369538,122.952487 L82.5145934,122.030126 L82.5145934,117.275532 L80.6602245,115.423093 L80.6602245,104.536153 L78.059091,102.037289 L78.059091,98.6392209 L77.6596587,95.341493 L76.9611347,91.1426306 L75.9615894,87.34513 L75.5621571,84.7459261 L74.962044,82.1467222 L74.1631795,80.4486528 L74.1380944,64.2417385 L73.7618177,80.4486528 L73.262045,83.4434297 L71.8128972,86.5443359 L71.8128972,89.19371 L70.2634089,90.7431983 L70.2634089,94.1393371 L69.2387784,97.8133417 L68.5151693,98.5388804 L68.5151693,101.487346 L67.9652264,105.134336 L67.3747613,115.756918 L65.8928099,118.473829 L64.1638665,118.473829 L64.1638665,164.317842 L62.0682946,164.317842 L62.0682946,161.853712 L60.8622794,139.161331 L41.2978188,139.161331 L41.2978188,167.912732 C39.7695564,168.007284 38.2798864,167.995706 38.2798864,167.598204 L38.2798864,171.907055 L37.4269925,172.759949 L37.4269925,158.484588 L31.8889708,158.484588 L31.8889708,173.336906 L29.11996,173.336906 L29.11996,154.864613 L16.1239405,154.864613 L16.1239405,180.119536 L12.8223533,180.119536 L12.8223533,167.111938 L0,167.111938 L0,176.310457 L0,261 L499.544993,260.681612 C499.546111,260.567485 499.546206,200.454344 499.545302,200.342181 C499.468218,190.776928 492.123658,188.326228 492.123658,188.326228 L494.340796,188.376398 Z"></path>
        </g>
    </g>
</svg>