<?xml version="1.0" encoding="UTF-8"?>
<svg width="1088px" height="124px" viewBox="0 0 1088 124" version="1.1" xmlns="http://www.w3.org/2000/svg" xmlns:xlink="http://www.w3.org/1999/xlink">
    <style>
        #flying {
            animation: move 4s cubic-bezier(0.645, 0.045, 0.355, 1);
            -webkit-animation: move 4s cubic-bezier(0.645, 0.045, 0.355, 1);
            animation-fill-mode: forwards;
        }

        #star1, #star2, #star3, #star4 {
            opacity: 0;
            transform-origin: center center;
            animation: twinkle 0.6s cubic-bezier(0.645, 0.045, 0.355, 1);
            -webkit-animation: twinkle 0.6s cubic-bezier(0.645, 0.045, 0.355, 1);
            animation-fill-mode: forwards;
        }

        #star1 {
            animation-delay: 1.6s;
        }

        #star2 {
            animation-delay: 2s;
        }

        #star3 {
            animation-delay: 2.4s;
        }

        #star4 {
            animation-delay: 2.8s;
        }

        @keyframes move {
            0% {
                opacity: 0;
                transform: translateX(-1100px);
            }
            40% {
                opacity: 0;
            }
            50%, 60% {
                opacity: 1;
            }
            100% {
                opacity: 0;
                transform: translateX(0px);
            }   
        }

        @keyframes twinkle {
            0% {
                opacity: 0;
                transform: scale(0);
            }
            100% {
                opacity: 1;
                transform: scale(1);
            }
        }

    </style>
    <defs>
        <rect id="path-1" x="0" y="0" width="1088" height="124"></rect>
    </defs>
    <g id="Page-1" stroke="none" stroke-width="1" fill="none" fill-rule="evenodd">
        <g id="sleigh">
            <mask id="mask-2" fill="white">
                <use xlink:href="#path-1"></use>
            </mask>
            <use id="Rectangle-2" fill-opacity="0.01" fill="#D8D8D8" xlink:href="#path-1"></use>
            <g id="flying" mask="url(#mask-2)">
                <g transform="translate(912.000000, 25.000000)" id="Group">
                    <g>
                        <path d="M144.554464,18.450062 C138.346339,16.7092975 131.887768,15.8914256 125.526429,17.0740496 C118.583036,18.365186 112.666339,22.1 106.819286,25.8657025 C103.655893,27.9029959 100.461429,29.8871074 97.0933929,31.5711983 C92.6059821,33.8155785 87.3192857,33.0430992 82.6580357,31.7785537 C80.3732143,31.1583678 78.1025893,30.3772934 75.8686607,29.4672934 C76.9403571,28.6322314 77.6327679,27.3306198 77.6330357,25.8635537 C77.6266071,24.6406405 77.1991071,23.3691116 76.3253571,22.3172934 C75.4604464,21.267624 74.0563393,20.4817149 72.3653571,20.4921901 C69.373125,20.4613017 67.1539286,21.7207438 65.9504464,23.5463843 C65.8020536,23.767438 65.6675893,23.9938636 65.5449107,24.2240496 C64.5152679,23.5966116 63.5041071,22.9487603 62.5151786,22.2826446 C62.7069643,21.5026446 62.4549107,20.6463636 61.7933036,20.1038017 C60.9720536,19.4301653 59.8039286,19.4720661 59.030625,20.1491942 C58.7458929,20.0170455 58.6708929,20.0097934 58.6017857,20.0097934 C58.4041071,20.0127479 58.2439286,20.0573347 58.1520536,20.0543802 C58.0433036,20.0664669 57.8260714,19.8805992 57.4853571,19.858843 C57.1604464,19.9133678 57.0661607,20.0721074 56.9758929,20.1666529 C56.8489286,20.3082025 56.8371429,20.3178719 56.8307143,20.3221694 C56.6890179,20.3726653 56.4624107,20.3672934 56.2001786,20.5010537 C55.9725,20.6240702 55.8147321,20.7742149 55.6655357,20.8671488 C55.6323214,20.9238223 55.3470536,20.8666116 55.0213393,21.0436157 C54.7966071,21.1972521 54.66,21.3675413 54.5389286,21.4317355 C54.4628571,21.4782025 54.4058036,21.5308471 54.358125,21.5832231 C54.3032143,21.643657 54.260625,21.7032851 54.2215179,21.752438 C54.1529464,21.8488636 54.0950893,21.8974793 54.0913393,21.8945248 C53.7257143,21.9657025 53.6461607,21.9839669 53.559375,22.0374174 C53.473125,22.0876446 53.3844643,22.1956198 53.3603571,22.3170248 C51.3897321,23.0725826 49.5573214,23.4607025 47.9480357,23.6548967 C46.918125,23.7792562 45.9790179,23.8257231 45.1558929,23.8257231 C43.9778571,23.8257231 43.03875,23.7317149 42.4165179,23.6430785 C42.1058036,23.5984917 41.8741071,23.5560537 41.7313393,23.5267769 C40.0076786,23.087624 38.4005357,24.0381818 37.9947321,25.6188636 C37.588125,27.1990083 38.5366071,28.8100413 40.111875,29.2175 C40.2988393,29.2647727 42.17625,29.7342769 45.155625,29.734814 C46.4919643,29.734814 48.0455357,29.6389256 49.7592857,29.3668388 C51.5525893,29.0823967 53.5216071,28.6053719 55.6007143,27.8393388 C55.7397321,27.7883058 55.8701786,27.7243802 55.9963393,27.6553512 C56.2419643,27.7614463 56.2797321,27.7482851 56.3965179,27.786157 C56.7977679,27.8208058 56.86875,27.7856198 56.9016964,27.7689669 C57.2389286,27.6480992 57.4601786,27.6217769 57.705,27.5436157 C57.9575893,27.4560537 58.1284821,27.3161157 58.2715179,27.270186 C58.5613393,27.1536157 58.7126786,26.9618388 58.8107143,26.9355165 C58.94625,26.9258471 59.0726786,26.9559298 59.2299107,26.9588843 C59.6333036,26.8219008 59.8695536,26.7622727 60.0838393,26.585 C60.3115179,26.3746901 60.3720536,26.1270455 60.4548214,26.0370661 C60.4834821,25.9637397 60.7596429,25.8807438 60.9436607,25.5785744 C60.9980357,25.4719421 61.0066071,25.3706818 61.0071429,25.2868802 C61.0055357,25.1370041 60.9790179,25.015062 60.9814286,24.9460331 C61.0138393,24.8144215 61.0213393,24.7316942 61.0213393,24.6602479 C61.0194643,24.5146694 60.9966964,24.4029339 60.9977679,24.3304132 C61.0095536,24.213843 61.0379464,24.1351446 61.0660714,24.0411364 C61.295625,23.8735331 61.4196429,23.7797934 61.5460714,23.6745041 C62.6480357,24.3903099 63.7730357,25.0803306 64.9175893,25.7429545 C64.5361607,26.9771488 64.4102679,28.2647934 64.40625,29.476157 C64.4067857,29.8696488 64.4220536,30.2550826 64.4469643,30.6313843 C64.4598214,30.8236983 64.4753571,31.0130579 64.4935714,31.1991942 C57.0833036,29.1866116 57.7366071,31.4925 53.1680357,36.1566529 C52.7145536,36.6197107 52.2109821,37.105062 51.6415179,37.6127066 C45.3795536,43.1941116 42.5649107,39.9161777 34.9280357,34.0546281 C34.4713393,33.7041116 33.9977679,33.3444628 33.5046429,32.9767562 C33.2488393,32.7860537 32.98875,32.5934711 32.7225,32.3987397 C26.8017857,28.0663017 15.2169643,32.5706405 10.9411607,38.8971281 C8.45678571,42.5731198 8.43776786,46.8633884 13.4367857,50.3946074 C15.51,51.8589876 18.4044643,53.1060744 21.8263393,54.1014876 C21.6316071,54.2124174 21.4508036,54.3453719 21.2836607,54.4952479 C20.7771429,54.9486364 20.4101786,55.5666736 20.2786607,56.2891942 C20.1996429,56.7270041 20.4891964,57.146281 20.9266071,57.2255165 C21.3626786,57.3050207 21.7808036,57.0144008 21.8603571,56.5763223 C21.9942857,55.8261364 22.6497321,55.3007645 23.3799107,55.3007645 C24.4066071,55.4603099 24.9308036,56.117562 24.9308036,56.8502893 C24.9308036,56.9418802 24.9227679,57.034814 24.9053571,57.1320455 C24.6401786,58.607438 23.3520536,59.6428719 21.9085714,59.6428719 C21.7280357,59.6428719 21.5442857,59.6270248 21.358125,59.5931818 C19.8865179,59.3275413 18.853125,58.035062 18.853125,56.5886777 C18.853125,56.4065702 18.8686607,56.2239256 18.9024107,56.0407438 C18.9825,55.6026653 18.69375,55.1828512 18.2574107,55.1025413 C17.8213393,55.0222314 17.4024107,55.3120455 17.3217857,55.7493182 C17.2700893,56.0308058 17.2457143,56.3122934 17.2457143,56.5886777 C17.2457143,57.6934091 17.6375893,58.7347521 18.3091071,59.5523554 C14.8296429,58.7814876 11.3145536,57.8226033 7.79008929,56.6413223 C7.08830357,56.4060331 6.32973214,56.7858264 6.09508929,57.4892769 C5.86044643,58.1929959 6.23973214,58.953657 6.94151786,59.1892149 C19.0998214,63.2632645 31.1338393,64.8090289 41.9804464,64.8090289 C52.130625,64.8090289 61.2407143,63.4561157 68.4683036,61.5359298 C72.0833036,60.5748967 75.2276786,59.4720455 77.8076786,58.3154752 C80.3892857,57.1532645 82.4019643,55.9531818 83.7950893,54.7077066 C86.4136607,52.3609917 87.6790179,49.4601653 87.6760714,46.7204959 C87.6784821,44.448719 86.8058036,42.2970041 85.220625,40.7313636 C83.638125,39.1606198 81.3516964,38.2038843 78.6779464,38.2084504 C78.5263393,38.2089876 78.3672321,38.211405 78.2016964,38.2189256 C77.8901786,38.2315496 77.5770536,38.2374587 77.2741071,38.2374587 C74.5757143,38.2355785 72.6313393,37.7507645 71.2272321,37.1192975 C70.8827679,36.9645868 70.569375,36.8010124 70.2870536,36.6331405 C68.8564286,35.7825 68.1567857,34.8010537 67.8798214,34.276219 C67.8685714,34.2611777 67.7764286,34.0438843 67.6896429,33.7538017 C67.6240179,33.5408058 67.5554464,33.2816116 67.4884821,32.9891116 C67.4126786,32.6568595 67.3395536,32.2802893 67.276875,31.8741736 C67.2554464,31.7353099 67.2353571,31.5929545 67.2166071,31.4476446 C67.1367857,30.8263843 67.0845536,30.1540909 67.0861607,29.4758884 C67.0829464,28.6574793 67.1611607,27.8374587 67.333125,27.0835124 C68.1535714,27.5197107 68.98125,27.9419421 69.8166964,28.3480579 C69.7866964,28.7866736 69.9696429,29.2306612 70.3459821,29.5145661 C71.1050893,30.0877479 72.0597321,30.4288636 73.0802679,30.4283264 C73.4541964,30.4280579 73.8155357,30.3778306 74.1632143,30.292686 C75.6182143,30.8892355 77.0858036,31.4398554 78.5608929,31.9338017 C83.2285714,33.497562 88.2776786,34.481157 93.1909821,33.6930992 C97.2530357,33.041219 100.92,30.7240496 104.380446,28.6104752 C110.205536,25.0526653 115.783661,20.7178099 122.390893,18.7020041 C130.049196,16.3657645 138.127768,17.7600413 145.627232,20.1927066 L145.087768,19.3152066 L144.554464,18.450062 Z M41.9804464,62.1246901 C36.3128571,62.1249587 30.3128571,61.686343 24.1459821,60.676157 C25.3323214,60.0218595 26.2258929,58.8593802 26.4875893,57.4194421 C26.521875,57.2284711 26.5384821,57.038843 26.5384821,56.8516322 C26.5384821,56.4704959 26.4691071,56.1009091 26.341875,55.7565702 C26.2625893,55.5416942 26.1583929,55.3378306 26.0357143,55.1465909 C37.670625,57.5835537 53.2379464,57.5072727 64.3725,53.8605579 C64.2790179,54.058781 64.205625,54.2669421 64.1547321,54.4820868 C64.0990179,54.717376 64.0682143,54.9604545 64.0684821,55.2083678 C64.0679464,55.4554752 64.0974107,55.7066116 64.1576786,55.9553306 C64.2621429,56.3872314 64.6963393,56.6531405 65.1275893,56.5483884 C65.5588393,56.4430992 65.8240179,56.007438 65.7195536,55.575 C65.6895536,55.4506405 65.6753571,55.3281612 65.6748214,55.2083678 C65.6753571,54.5105579 66.1502679,53.872376 66.85875,53.7028926 C66.9851786,53.6720041 67.1067857,53.6580372 67.2257143,53.6575 C67.9208036,53.6580372 68.5575,54.1339876 68.7278571,54.8457645 C68.78625,55.0885744 68.8135714,55.3300413 68.8135714,55.5682851 C68.8135714,56.9442975 67.8760714,58.2007851 66.48,58.5378719 C66.2389286,58.5966942 65.9970536,58.6238223 65.7589286,58.6238223 C64.3861607,58.6238223 63.1336607,57.6837397 62.7980357,56.2851653 C62.6935714,55.8527273 62.259375,55.5868182 61.828125,55.6915702 C61.396875,55.7963223 61.1316964,56.2317149 61.2361607,56.6641529 C61.5972321,58.1553926 62.6335714,59.3028306 63.9415179,59.8612397 C57.6447321,61.2205992 50.1549107,62.1279132 41.9804464,62.1246901 Z M77.2738393,40.9247521 C77.6124107,40.9247521 77.960625,40.9180372 78.3171429,40.9040702 C78.4403571,40.8986983 78.556875,40.8957438 78.6779464,40.8957438 C80.7308036,40.9011157 82.2736607,41.5965083 83.3397321,42.6451033 C84.4015179,43.6977273 84.9953571,45.1306818 84.9977679,46.7221074 C84.9948214,48.6350413 84.135,50.7915909 82.0079464,52.7085537 C80.9501786,53.6634091 79.1300893,54.7842562 76.7140179,55.8650826 C74.6708036,56.7836777 72.2046429,57.6810537 69.3849107,58.4967769 C70.0414286,57.6802479 70.42125,56.6515289 70.4209821,55.5682851 C70.4209821,55.2043388 70.3786607,54.8347521 70.29,54.4665083 C70.0974107,53.6722727 69.6219643,53.0228099 68.9978571,52.5965496 C68.8141071,52.4713843 68.6180357,52.3663636 68.4117857,52.2820248 C69.2008929,51.9156612 69.9554464,51.5264669 70.6695536,51.1122934 C77.8730357,46.9348347 77.0841964,43.6724793 74.4010714,40.7410331 C74.6603571,40.7756818 74.9241964,40.8068388 75.1963393,40.8320868 C75.8504464,40.8919835 76.5415179,40.9252893 77.2738393,40.9247521 Z M68.165625,25.0564256 C68.9394643,23.9648554 70.0304464,23.2087603 72.365625,23.1784091 C73.2634821,23.1888843 73.8235714,23.527314 74.27625,24.0467769 C74.7195536,24.5635537 74.9611607,25.306219 74.9547321,25.8638223 C74.953125,26.9016736 74.1147321,27.7415702 73.0802679,27.7439876 C72.6527679,27.7434504 72.2710714,27.6053926 71.9555357,27.3690289 C71.6121429,27.1101033 71.1859821,27.0475207 70.8010714,27.1520041 C69.8083929,26.6502686 68.8266964,26.1278512 67.8597321,25.5831405 C67.9534821,25.3980785 68.0533929,25.2197314 68.165625,25.0564256 Z M60.485625,24.6610537 C60.485625,24.697314 60.4816071,24.7201446 60.4765179,24.7349174 C60.4508036,24.8109298 60.4457143,24.8834504 60.4457143,24.9468388 C60.4473214,25.0961777 60.4733036,25.218657 60.4714286,25.287686 C60.4719643,25.3266322 60.4652679,25.3303926 60.4679464,25.3317355 C60.4719643,25.3768595 60.2402679,25.4762397 60.031875,25.7083058 C59.8757143,25.9269421 59.8025893,26.1353719 59.7350893,26.1775413 C59.6574107,26.2508678 59.461875,26.3172107 59.2548214,26.4208884 C59.2508036,26.4214256 59.2419643,26.4225 59.2299107,26.4225 C59.1675,26.425186 59.0333036,26.3932231 58.8691071,26.3916116 C58.7900893,26.3916116 58.6998214,26.4007438 58.6066071,26.4396901 C58.3363393,26.5648554 58.194375,26.7413223 58.0915179,26.7652273 C57.8394643,26.8603099 57.6645536,26.9980992 57.54,27.0330165 C57.5083929,27.0434917 57.4730357,27.0494008 57.4403571,27.0579959 C57.2839286,27.0988223 57.1183929,27.1272934 56.9464286,27.1769835 C56.8084821,27.2175413 56.7155357,27.2621281 56.6641071,27.2879132 C56.6555357,27.2924793 56.6485714,27.2954339 56.6434821,27.2978512 C56.62875,27.2948967 56.6008929,27.2879132 56.5524107,27.2723347 C56.4645536,27.2465496 56.3991964,27.2331198 56.3552679,27.2253306 C56.3209821,27.2191529 56.3016964,27.215124 56.2976786,27.2140496 C56.2845536,27.2006198 56.2473214,27.1595248 56.1908036,27.0816322 C56.1364286,27.0236157 56.0809821,26.7880579 55.918125,26.5455165 C55.8329464,26.4278719 55.7499107,26.236095 55.6151786,26.0333058 C55.550625,25.9535331 55.5192857,25.7305992 55.3722321,25.4851033 C55.2825,25.3457025 55.2050893,25.1630579 55.0904464,24.9680579 C55.0092857,24.8364463 54.9538393,24.6484298 54.8424107,24.4389256 C54.7114286,24.2256612 54.5375893,24.1861777 54.4234821,24.1289669 C54.3640179,24.103719 54.315,24.081157 54.28875,24.0653099 C54.283125,23.9946694 54.3608036,23.823843 54.3709821,23.5992975 C54.3709821,23.5477273 54.3653571,23.4867562 54.3407143,23.4209504 C54.2646429,23.2313223 54.1366071,23.1354339 54.0549107,23.0570041 C54.0125893,23.0191322 53.9788393,22.9871694 53.9622321,22.9670248 C53.9142857,22.7749793 53.8767857,22.597438 53.8778571,22.4953719 C53.9552679,22.4609917 54.1130357,22.4612603 54.2935714,22.3925 C54.46125,22.3197107 54.5483036,22.2069008 54.6200893,22.1147727 C54.6297321,22.1024174 54.6399107,22.0892562 54.6490179,22.0779752 C54.7226786,21.9759091 54.7869643,21.9047314 54.8078571,21.8966736 C54.9557143,21.8072314 55.0625893,21.7067769 55.1558036,21.622438 C55.2125893,21.5711364 55.2653571,21.5241322 55.3157143,21.4935124 C55.3384821,21.440062 55.6266964,21.4927066 55.9529464,21.3208058 C56.1570536,21.1883884 56.3049107,21.051405 56.4514286,20.9756612 C56.56125,20.9109298 56.7383036,20.9069008 56.9866071,20.8373347 C57.2113393,20.7578306 57.2970536,20.607686 57.3857143,20.5131405 C57.4269643,20.463719 57.4636607,20.4236983 57.4864286,20.4046281 C57.5764286,20.3989876 57.7778571,20.5389256 58.0660714,20.5878099 C58.1003571,20.5907645 58.1260714,20.5913017 58.153125,20.5913017 C58.333125,20.5886157 58.4788393,20.5523554 58.575,20.5488636 C58.5838393,20.5483264 58.5950893,20.5467149 58.603125,20.5469835 C58.6328571,20.5469835 58.6540179,20.5507438 58.6676786,20.5545041 C58.7247321,20.5483264 58.869375,20.7629339 59.1399107,20.932686 C59.22,20.9603512 59.3148214,21.1443388 59.5320536,21.3409504 C59.6954464,21.4682645 59.85,21.4819628 59.9608929,21.5125826 C60.016875,21.5252066 60.0626786,21.5378306 60.0889286,21.5491116 C60.1146429,21.560124 60.1116964,21.5636157 60.1141071,21.5620041 C60.1510714,21.6055165 60.1866964,21.667562 60.223125,21.7363223 C60.2761607,21.8367769 60.3310714,21.9546901 60.3942857,22.0771694 C60.3950893,22.0806612 60.3958929,22.0892562 60.3958929,22.1016116 C60.399375,22.1633884 60.3616071,22.2941942 60.358125,22.4655579 C60.358125,22.5227686 60.36375,22.5875 60.3857143,22.6565289 C60.4114286,22.7306612 60.4170536,22.8206405 60.4242857,22.9313017 C60.4288393,23.000062 60.4336607,23.075 60.4451786,23.1647107 C60.4990179,23.4480785 60.6091071,23.6009091 60.5957143,23.672624 C60.6002679,23.7867769 60.5220536,23.9428306 60.4749107,24.1907438 C60.4658036,24.2396281 60.4633929,24.2879752 60.4633929,24.3309504 C60.4639286,24.3715083 60.4660714,24.408843 60.46875,24.4440289 C60.4749107,24.5366942 60.4864286,24.6100207 60.485625,24.6610537 Z M60.4063393,22.0744835 L60.6310714,21.9546901 L60.564375,21.9906818 L60.3953571,22.0820041 L60.4095536,22.0739463 L60.4063393,22.0744835 Z" id="Shape" fill="#E4B45A" fill-rule="nonzero"></path>
                        <path d="M61.5460714,23.6745041 C61.4196429,23.7797934 61.295625,23.8735331 61.0660714,24.0411364 C61.0379464,24.1351446 61.0095536,24.213843 60.9977679,24.3304132 C60.9966964,24.4029339 61.0194643,24.5146694 61.0213393,24.6602479 C61.0213393,24.7316942 61.0138393,24.8144215 60.9814286,24.9460331 C60.9790179,25.015062 61.0055357,25.1370041 61.0071429,25.2868802 C61.0066071,25.3706818 60.9980357,25.4719421 60.9436607,25.5785744 C60.7596429,25.8807438 60.4834821,25.9637397 60.4548214,26.0370661 C60.3720536,26.1270455 60.3115179,26.3746901 60.0838393,26.585 C59.8695536,26.7622727 59.6333036,26.8219008 59.2299107,26.9588843 C59.0726786,26.9559298 58.94625,26.9258471 58.8107143,26.9355165 C58.7126786,26.9618388 58.5613393,27.1536157 58.2715179,27.270186 C58.1284821,27.3161157 57.9575893,27.4560537 57.705,27.5436157 C57.4601786,27.6217769 57.2389286,27.6480992 56.9016964,27.7689669 C56.86875,27.7856198 56.7977679,27.8208058 56.3965179,27.786157 C56.2797321,27.7482851 56.2419643,27.7614463 55.9963393,27.6553512 C55.8701786,27.7243802 55.7397321,27.7883058 55.6007143,27.8393388 C53.5216071,28.6053719 51.5525893,29.0823967 49.7592857,29.3668388 C48.0455357,29.6389256 46.4919643,29.734814 45.155625,29.734814 C42.17625,29.7342769 40.2988393,29.2647727 40.111875,29.2175 C38.5366071,28.8100413 37.588125,27.1990083 37.9947321,25.6188636 C38.4005357,24.0381818 40.0076786,23.087624 41.7313393,23.5267769 C41.8741071,23.5560537 42.1058036,23.5984917 42.4165179,23.6430785 C43.03875,23.7317149 43.9778571,23.8257231 45.1558929,23.8257231 C45.9790179,23.8257231 46.918125,23.7792562 47.9480357,23.6548967 C49.5573214,23.4607025 51.3897321,23.0725826 53.3603571,22.3170248 C53.3844643,22.1956198 53.473125,22.0876446 53.559375,22.0374174 C53.6461607,21.9839669 53.7257143,21.9657025 54.0913393,21.8945248 C54.0950893,21.8974793 54.1529464,21.8488636 54.2215179,21.752438 C54.260625,21.7032851 54.3032143,21.643657 54.358125,21.5832231 C54.4058036,21.5308471 54.4628571,21.4782025 54.5389286,21.4317355 C54.66,21.3675413 54.7966071,21.1972521 55.0213393,21.0436157 C55.3470536,20.8666116 55.6323214,20.9238223 55.6655357,20.8671488 C55.8147321,20.7742149 55.9725,20.6240702 56.2001786,20.5010537 C56.4624107,20.3672934 56.6890179,20.3726653 56.8307143,20.3221694 C56.8371429,20.3178719 56.8489286,20.3082025 56.9758929,20.1666529 C57.0661607,20.0721074 57.1604464,19.9133678 57.4853571,19.858843 C57.8260714,19.8805992 58.0433036,20.0664669 58.1520536,20.0543802 C58.2439286,20.0573347 58.4041071,20.0127479 58.6017857,20.0097934 C58.6708929,20.0097934 58.7458929,20.0170455 59.030625,20.1491942 C59.8039286,19.4720661 60.9720536,19.4301653 61.7933036,20.1038017 C62.4549107,20.6463636 62.7069643,21.5026446 62.5151786,22.2826446 L62.5151786,22.2826446" id="Combined-Shape" fill="#DE4040"></path>
                        <path d="M60.485625,24.6610537 C60.4864286,24.6100207 60.4749107,24.5366942 60.46875,24.4440289 C60.4660714,24.408843 60.4639286,24.3715083 60.4633929,24.3309504 C60.4633929,24.2879752 60.4658036,24.2396281 60.4749107,24.1907438 C60.5220536,23.9428306 60.6002679,23.7867769 60.5957143,23.672624 C60.6091071,23.6009091 60.4990179,23.4480785 60.4451786,23.1647107 C60.4336607,23.075 60.4288393,23.000062 60.4242857,22.9313017 C60.4170536,22.8206405 60.4114286,22.7306612 60.3857143,22.6565289 C60.36375,22.5875 60.358125,22.5227686 60.358125,22.4655579 C60.3616071,22.2941942 60.399375,22.1633884 60.3958929,22.1016116 C60.3958929,22.0892562 60.3950893,22.0806612 60.3942857,22.0771694 C60.3310714,21.9546901 60.2761607,21.8367769 60.223125,21.7363223 C60.1866964,21.667562 60.1510714,21.6055165 60.1141071,21.5620041 C60.1116964,21.5636157 60.1146429,21.560124 60.0889286,21.5491116 C60.0626786,21.5378306 60.016875,21.5252066 59.9608929,21.5125826 C59.85,21.4819628 59.6954464,21.4682645 59.5320536,21.3409504 C59.3148214,21.1443388 59.22,20.9603512 59.1399107,20.932686 C58.869375,20.7629339 58.7247321,20.5483264 58.6676786,20.5545041 C58.6540179,20.5507438 58.6328571,20.5469835 58.603125,20.5469835 C58.5950893,20.5467149 58.5838393,20.5483264 58.575,20.5488636 C58.4788393,20.5523554 58.333125,20.5886157 58.153125,20.5913017 C58.1260714,20.5913017 58.1003571,20.5907645 58.0660714,20.5878099 C57.7778571,20.5389256 57.5764286,20.3989876 57.4864286,20.4046281 C57.4636607,20.4236983 57.4269643,20.463719 57.3857143,20.5131405 C57.2970536,20.607686 57.2113393,20.7578306 56.9866071,20.8373347 C56.7383036,20.9069008 56.56125,20.9109298 56.4514286,20.9756612 C56.3049107,21.051405 56.1570536,21.1883884 55.9529464,21.3208058 C55.6266964,21.4927066 55.3384821,21.440062 55.3157143,21.4935124 C55.2653571,21.5241322 55.2125893,21.5711364 55.1558036,21.622438 C55.0625893,21.7067769 54.9557143,21.8072314 54.8078571,21.8966736 C54.7869643,21.9047314 54.7226786,21.9759091 54.6490179,22.0779752 C54.6399107,22.0892562 54.6297321,22.1024174 54.6200893,22.1147727 C54.5483036,22.2069008 54.46125,22.3197107 54.2935714,22.3925 C54.1130357,22.4612603 53.9552679,22.4609917 53.8778571,22.4953719 C53.8767857,22.597438 53.9142857,22.7749793 53.9622321,22.9670248 C53.9788393,22.9871694 54.0125893,23.0191322 54.0549107,23.0570041 C54.1366071,23.1354339 54.2646429,23.2313223 54.3407143,23.4209504 C54.3653571,23.4867562 54.3709821,23.5477273 54.3709821,23.5992975 C54.3608036,23.823843 54.283125,23.9946694 54.28875,24.0653099 C54.315,24.081157 54.3640179,24.103719 54.4234821,24.1289669 C54.5375893,24.1861777 54.7114286,24.2256612 54.8424107,24.4389256 C54.9538393,24.6484298 55.0092857,24.8364463 55.0904464,24.9680579 C55.2050893,25.1630579 55.2825,25.3457025 55.3722321,25.4851033 C55.5192857,25.7305992 55.550625,25.9535331 55.6151786,26.0333058 C55.7499107,26.236095 55.8329464,26.4278719 55.918125,26.5455165 C56.0809821,26.7880579 56.1364286,27.0236157 56.1908036,27.0816322 C56.2473214,27.1595248 56.2845536,27.2006198 56.2976786,27.2140496 C56.3016964,27.215124 56.3209821,27.2191529 56.3552679,27.2253306 C56.3991964,27.2331198 56.4645536,27.2465496 56.5524107,27.2723347 C56.6008929,27.2879132 56.62875,27.2948967 56.6434821,27.2978512 C56.6485714,27.2954339 56.6555357,27.2924793 56.6641071,27.2879132 C56.7155357,27.2621281 56.8084821,27.2175413 56.9464286,27.1769835 C57.1183929,27.1272934 57.2839286,27.0988223 57.4403571,27.0579959 C57.4730357,27.0494008 57.5083929,27.0434917 57.54,27.0330165 C57.6645536,26.9980992 57.8394643,26.8603099 58.0915179,26.7652273 C58.194375,26.7413223 58.3363393,26.5648554 58.6066071,26.4396901 C58.6998214,26.4007438 58.7900893,26.3916116 58.8691071,26.3916116 C59.0333036,26.3932231 59.1675,26.425186 59.2299107,26.4225 C59.2419643,26.4225 59.2508036,26.4214256 59.2548214,26.4208884 C59.461875,26.3172107 59.6574107,26.2508678 59.7350893,26.1775413 C59.8025893,26.1353719 59.8757143,25.9269421 60.031875,25.7083058 C60.2402679,25.4762397 60.4719643,25.3768595 60.4679464,25.3317355 C60.4652679,25.3303926 60.4719643,25.3266322 60.4714286,25.287686 C60.4733036,25.218657 60.4473214,25.0961777 60.4457143,24.9468388 C60.4457143,24.8834504 60.4508036,24.8109298 60.4765179,24.7349174 C60.4816071,24.7201446 60.485625,24.697314 60.485625,24.6610537 Z" id="Path" fill="#FFFFFF"></path>
                        <path d="M150.542679,43.0036777 C148.480179,43.0552479 147.535982,43.3329752 147.109018,43.5690702 C147.097768,43.5752479 147.086786,43.5808884 147.075536,43.5867975 C146.896607,43.6856405 146.717679,43.7812603 146.53875,43.8733884 L151.905804,47.4607438 C151.905804,47.4607438 148.974107,52.4952893 148.676786,52.5557231 C148.38,52.6166942 147.424286,52.1055579 147.424286,52.1055579 C147.424286,52.1055579 145.918661,52.604876 144.632143,54.0775826 C144.814286,54.8656405 149.009464,55.1288636 149.890446,54.2527066 C150.771964,53.3760124 154.971964,48.0578306 154.702768,47.072624 C154.519018,46.401405 152.53125,44.2784298 151.283571,42.9940083 C151.270982,42.9940083 151.258125,42.9937397 151.245268,42.9937397 C150.996429,42.9942769 150.765,42.9980372 150.542679,43.0036777 Z" id="Shape" fill="#906E31" fill-rule="nonzero"></path>
                        <path d="M159.056518,22.0108264 C156.412768,20.368905 148.683214,17.6351446 148.683214,17.6351446 L148.570446,16.0466736 C148.570446,16.0466736 151.811786,16.5204752 153.55125,16.6316736 C155.290982,16.7407231 156.415179,13.9513636 156.415179,13.9513636 C156.415179,13.9513636 154.947054,15.633843 153.827679,15.4364256 C152.707232,15.2387397 151.719911,15.0834917 152.374821,14.4138843 C153.031339,13.7450826 152.893929,12.7163636 152.739911,12.2310124 C152.3925,13.0996488 150.698839,14.2172727 150.698839,14.2172727 L149.054732,14.1229959 L148.936875,13.1230165 L149.693036,10.7575 L151.740536,8.27568182 L148.304732,10.3159298 L146.982054,12.2874174 C146.982054,12.2874174 146.377232,11.8377893 146.132679,9.88376033 C145.889732,7.92919421 147.452143,5.70683884 147.452143,5.70683884 C147.452143,5.70683884 144.854196,6.86528926 144.463125,9.93237603 C144.072321,12.9981198 147.014732,15.7240909 147.014732,15.7240909 L147.009911,17.1441529 L144.601875,17.5035331 L145.318393,18.6686983 L145.865893,19.5590909 L146.416875,20.455124 L147.034821,21.459938 C147.034821,21.459938 143.672143,27.4702893 139.684018,29.9596281 C136.583036,31.8948554 131.083125,33.2536777 126.597857,34.3594835 C123.414107,35.1448554 118.913304,34.5730165 115.731429,35.4190909 C112.549821,36.2657025 108.098571,39.7198347 107.026607,43.1742355 C106.277679,45.586219 114.096964,39.0056405 114.096964,39.0056405 C114.096964,39.0056405 114.561161,41.8868595 114.317143,44.392314 C114.072857,46.8977686 113.826161,46.7594421 112.175625,47.2517769 C110.525893,47.7443802 108.764196,49.9828512 108.764196,49.9828512 C108.764196,49.9828512 109.367946,54.1208264 108.425089,56.6746281 C108.095893,57.5658264 106.448304,59.6109091 105.831161,60.0656405 C105.214018,60.5203719 104.888839,59.5609504 104.277321,59.9705579 C103.665804,60.3801653 103.354018,62.9449793 104.156786,62.8899174 C104.959821,62.8353926 108.943661,60.1314463 109.472679,59.3194835 C110.001964,58.5080579 111.387589,53.9733678 112.066339,52.3298347 C112.745357,50.6852273 119.515714,51.8603306 121.834554,50.897686 C124.154196,49.9339669 125.025268,46.8682231 127.767054,44.6077273 C130.37625,42.4560124 136.476161,47.9246074 145.463304,43.8003306 C145.649464,43.7149174 145.837232,43.624938 146.026071,43.5309298 C146.206339,43.441219 146.387946,43.3466736 146.570357,43.2491736 C146.663304,43.1994835 146.755982,43.1508678 146.849732,43.0987603 C147.533304,42.7200413 148.715089,42.5449174 150.028393,42.4839463 C150.269196,42.4726653 150.514286,42.4656818 150.762054,42.4613843 C151.010625,42.4570868 151.260268,42.456281 151.510982,42.4584298 C154.125536,42.4796488 156.730179,42.8033058 156.730179,42.8033058 L161.178482,48.2034091 L160.770536,49.8101446 C160.770536,49.8101446 164.240625,52.2197107 164.747679,51.9532645 C165.254732,51.6873554 160.407589,41.9843595 158.038661,40.2946281 C158.038661,40.2946281 150.574554,40.3067149 150.950893,37.0416736 C151.329375,33.7744835 153.861964,25.9935537 153.861964,25.9935537 C153.861964,25.9935537 156.259554,25.2788223 157.74,25.0403099 C157.884375,25.0172107 158.020446,24.9984091 158.144464,24.9852479 C158.413929,24.957314 158.712054,24.8898967 158.998929,24.7880992 C159.296518,24.6825413 159.58125,24.5391116 159.808661,24.3634504 C160.495179,23.8335124 160.658304,23.0062397 159.056518,22.0108264 Z M152.408571,22.4631405 C151.891071,22.5276033 151.419375,22.1588223 151.354821,21.6401653 C151.348929,21.5907438 151.35,21.5423967 151.351339,21.4940496 C151.359107,21.2364669 151.469732,21.0006405 151.65,20.8322314 C151.790089,20.7006198 151.970089,20.6092975 152.175268,20.5835124 C152.693036,20.5190496 153.165,20.8878306 153.229554,21.4064876 C153.231696,21.4231405 153.229554,21.4389876 153.230625,21.4553719 C153.249643,21.7183264 153.159375,21.9643595 152.995714,22.1491529 C152.848929,22.3154132 152.645893,22.4333264 152.408571,22.4631405 Z" id="Shape" fill="#906E31" fill-rule="nonzero"></path>
                        <path d="M45.8158929,39.9532438 C47.4723214,39.9532438 49.1592857,39.1085124 51.2863393,37.2127686 C51.976875,36.5971488 52.5707143,36.0132231 53.0933036,35.4636777 C52.738125,33.453781 51.2659821,31.5808678 50.086875,29.8559504 C48.451875,30.1291116 46.8072321,30.2728099 45.1617857,30.2728099 L45.155625,30.2728099 C42.2241964,30.2722727 40.3301786,29.8280165 39.9803571,29.738843 C38.1192857,29.2577893 36.9964286,27.3496901 37.4758929,25.4859091 C37.8723214,23.942562 39.2582143,22.8644215 40.8455357,22.8644215 C41.1380357,22.8644215 41.4316071,22.9017562 41.7166071,22.9756198 C41.728125,22.9777686 41.7720536,22.9877066 41.8363393,23.0008678 C41.9689286,23.0277273 42.1883036,23.0685537 42.4923214,23.1126033 C43.0588393,23.1934504 43.9813393,23.2893388 45.1553571,23.2893388 C45.9795536,23.2893388 46.8045536,23.238843 47.62875,23.1488636 C47.2992857,22.6761364 46.9009821,22.2367149 46.4651786,21.8467149 C46.468125,21.8432231 46.4726786,21.8375826 46.4753571,21.8348967 C46.479375,21.8311364 46.4825893,21.8281818 46.4852679,21.8257645 C46.7054464,21.7900413 46.8061607,21.6554752 46.8905357,21.5810744 C46.9352679,21.5372934 46.9722321,21.5010331 46.9955357,21.4835744 C47.0011607,21.4787397 47.00625,21.4755165 47.0097321,21.4733678 C47.1677679,21.4564463 47.3145536,21.4518802 47.4867857,21.4239463 C47.5416964,21.4752479 47.6509821,21.6022934 47.7460714,21.7223554 C47.80875,21.7978306 47.8719643,21.8733058 47.9421429,21.9404545 C48.016875,22.001157 48.0784821,22.0844215 48.2675893,22.0981198 C48.294375,22.0981198 48.3302679,22.0951653 48.3709821,22.0820041 C48.5391964,22.0199587 48.6013393,21.8982851 48.6444643,21.8109917 C48.7066071,21.6723967 48.7341964,21.5335331 48.7660714,21.426095 C48.7802679,21.3755992 48.7944643,21.3336983 48.8041071,21.3124793 C48.9575893,21.2090702 49.0167857,21.061343 49.0534821,20.9700207 C49.0778571,20.9023347 49.0992857,20.853719 49.1126786,20.8271281 C49.125,20.8260537 49.1413393,20.8255165 49.1600893,20.8255165 C49.2455357,20.8241736 49.3738393,20.8413636 49.5091071,20.842438 C49.6202679,20.835186 49.7742857,20.8521074 49.9309821,20.6820868 C50.0603571,20.5128719 50.0673214,20.3482231 50.085,20.227624 C50.0954464,20.104876 50.11875,20.0253719 50.1208929,20.0253719 C50.11875,20.02 50.1854464,19.9703099 50.29875,19.9165909 C50.4058929,19.8545455 50.5617857,19.7989463 50.6740179,19.6009917 C50.7766071,19.4014256 50.8658036,19.1801033 50.9370536,18.9928926 C50.9614286,18.9260124 50.97,18.8634298 50.9694643,18.806219 C50.9555357,18.5451446 50.8473214,18.3442355 50.8494643,18.288905 L50.8497321,18.2891736 C50.85,18.2883678 50.85,18.2878306 50.85,18.2872934 C50.8505357,18.286219 50.8513393,18.2856818 50.8513393,18.2856818 C50.8625893,18.2609711 50.9367857,18.1895248 51.0251786,18.1089463 C51.1084821,18.0238017 51.2308929,17.9265702 51.2710714,17.7149174 C51.27375,17.6869835 51.2750893,17.6708678 51.2750893,17.6542149 C51.2523214,17.3740702 51.0964286,17.2744215 51.0064286,17.1575826 C50.956875,17.1046694 50.9134821,17.0565909 50.89125,17.0257025 C50.8869643,17.0197934 50.8834821,17.0144215 50.8808036,17.0098554 C50.8808036,17.0082438 50.8808036,17.0063636 50.8808036,17.0042149 C50.8716964,16.7450207 50.7846429,16.5747314 50.769375,16.4715909 C50.7980357,16.4372107 50.88,16.3563636 50.9670536,16.2816942 C51.0666964,16.1707645 51.2228571,16.0990496 51.253125,15.8132645 C51.253125,15.7982231 51.2520536,15.782376 51.2496429,15.7619628 C51.2480357,15.7522934 51.2475,15.7493388 51.2475,15.741281 C51.2383929,15.6588223 51.3297321,15.4665083 51.3399107,15.2134917 C51.3399107,15.1734711 51.3364286,15.1283471 51.3257143,15.0802686 C51.2523214,14.7909917 51.0838393,14.5782645 51.0589286,14.4719008 C50.9823214,14.2693802 50.8317857,14.2196901 50.7286607,14.1807438 C50.5990179,14.138843 50.4634821,14.1192355 50.3448214,14.1015083 C50.3450893,14.0966736 50.3450893,14.0921074 50.3450893,14.0872727 C50.3448214,14.0725 50.3405357,14.0609504 50.3397321,14.0467149 C50.4013393,13.768719 50.445,13.4832025 50.4675,13.1909711 C50.5944643,11.5251446 50.0351786,9.96568182 49.0285714,8.7913843 C49.0540179,8.75566116 49.0789286,8.71940083 49.1016964,8.68206612 C49.2123214,8.48894628 49.2889286,8.27541322 49.2913393,8.05409091 C49.2913393,7.98989669 49.2846429,7.92382231 49.2634821,7.85559917 C49.17375,7.55557851 49.1124107,7.48950413 48.9728571,7.24347107 C48.945,7.19190083 48.9511607,7.18948347 48.9500893,7.18840909 C48.9404464,7.18840909 48.9800893,7.11454545 48.9870536,6.94022727 C48.9870536,6.87173554 48.9763393,6.79491736 48.9511607,6.71460744 C48.9053571,6.55452479 48.7719643,6.44816116 48.6666964,6.40599174 C48.5059821,6.33884298 48.3680357,6.33373967 48.2817857,6.3103719 C48.2600893,6.30553719 48.2432143,6.30016529 48.2314286,6.29559917 C48.234375,6.28512397 48.245625,6.25960744 48.2799107,6.20615702 C48.3214286,6.13605372 48.40875,6.0125 48.410625,5.82716942 C48.410625,5.77076446 48.4020536,5.71194215 48.384375,5.65392562 C48.3286607,5.45221074 48.1845536,5.32140496 48.1157143,5.2706405 C48.0463393,5.20940083 48.0533036,5.22793388 48.0214286,5.14708678 C47.9783036,5.00741736 47.919375,4.83873967 47.8226786,4.68295455 C47.7302679,4.53495868 47.5735714,4.35446281 47.3083929,4.3493595 C47.2532143,4.34882231 47.1999107,4.35849174 47.150625,4.37407025 C47.0105357,4.4143595 46.90125,4.52394628 46.8495536,4.6206405 C46.7713393,4.76729339 46.7571429,4.88977273 46.7314286,4.95692149 C46.7241964,4.97867769 46.7172321,4.99318182 46.7132143,5.00070248 L46.7126786,5.00070248 C46.7110714,5.00258264 46.6928571,4.99855372 46.6111607,4.93704545 C46.5350893,4.88493802 46.4067857,4.77535124 46.1967857,4.7721281 C46.1405357,4.7721281 46.0845536,4.78179752 46.0320536,4.79845041 C45.943125,4.82665289 45.8766964,4.87231405 45.8236607,4.92415289 C41.2773214,1.4085124 35.4755357,1.52427686 32.1171429,1.99082645 C32.0333036,1.88822314 31.94625,1.86028926 31.9001786,1.83423554 C31.8846429,1.82752066 31.8717857,1.82134298 31.861875,1.81677686 C31.8583929,1.80576446 31.8535714,1.78938017 31.8474107,1.76520661 C31.8308036,1.71121901 31.8104464,1.62204545 31.7341071,1.52588843 C31.6341964,1.41764463 31.5369643,1.39938017 31.4659821,1.39508264 C31.4879464,1.32417355 31.5088393,1.23983471 31.5141964,1.14528926 C31.513125,1.09157025 31.5101786,0.983326446 31.3974107,0.885826446 C31.280625,0.793161157 31.1753571,0.799338843 31.1094643,0.795847107 C31.0465179,0.796652893 31.0007143,0.801756198 30.97875,0.801219008 C30.9784821,0.801219008 30.9784821,0.801219008 30.9782143,0.801219008 C30.9174107,0.770061983 30.8520536,0.761198347 30.8046429,0.761466942 C30.721875,0.762541322 30.6677679,0.77892562 30.6257143,0.788863636 C30.5957143,0.734070248 30.5375893,0.647045455 30.3950893,0.572644628 C30.3929464,0.573181818 30.3771429,0.561900826 30.3329464,0.52322314 C30.2879464,0.487231405 30.2223214,0.425454545 30.105,0.38785124 C30.0720536,0.376033058 30.02625,0.369855372 29.9860714,0.369855372 C29.9126786,0.371198347 29.859375,0.385433884 29.8189286,0.397789256 C29.8079464,0.373884298 29.7961607,0.347293388 29.7833036,0.320433884 C29.7321429,0.255165289 29.7340179,0.114421488 29.4642857,0.0483471074 C29.4008036,0.0448553719 29.270625,0.00295454545 29.1080357,0 C28.8916071,0.013161157 28.7657143,0.0948140496 28.7544643,0.0835330579 C28.7536607,0.0835330579 28.7434821,0.0835330579 28.7300893,0.0835330579 C28.6875,0.0840702479 28.6178571,0.0760123967 28.5324107,0.0760123967 C28.4898214,0.0760123967 28.4434821,0.0784297521 28.3925893,0.0886363636 C28.2554464,0.120330579 28.2010714,0.212995868 28.1761607,0.259194215 C28.1097321,0.407995868 28.1102679,0.520805785 28.0971429,0.634152893 C28.0676786,0.627975207 28.0336607,0.622871901 27.9945536,0.62018595 C27.9688393,0.62018595 27.9409821,0.622871901 27.9128571,0.629049587 C27.87375,0.611590909 27.7842857,0.564318182 27.6283929,0.552768595 C27.5775,0.552768595 27.5161607,0.563512397 27.4583036,0.595206612 C27.3104464,0.684380165 27.2951786,0.800413223 27.2804464,0.861115702 C27.2777679,0.877768595 27.275625,0.893615702 27.27375,0.909194215 C27.2217857,0.886632231 27.1617857,0.864607438 27.0629464,0.859772727 C27.0040179,0.858698347 26.9225893,0.875619835 26.8540179,0.933099174 C26.6766964,1.11413223 26.7275893,1.24144628 26.71125,1.31423554 C26.7107143,1.33599174 26.7099107,1.35479339 26.7088393,1.36849174 C26.6509821,1.45041322 26.6450893,1.53152893 26.6432143,1.58578512 C26.5816071,1.57396694 26.5108929,1.56295455 26.4409821,1.5602686 C26.3809821,1.56429752 26.2596429,1.55677686 26.1482143,1.70450413 C26.098125,1.77272727 26.0898214,1.85169421 26.0898214,1.90487603 C26.0919643,1.9827686 26.1064286,2.03702479 26.1198214,2.08107438 C26.113125,2.08322314 26.1061607,2.08510331 26.0989286,2.08725207 C26.0330357,2.11679752 25.9092857,2.12485537 25.8104464,2.31663223 C25.7890179,2.36283058 25.7820536,2.41440083 25.7820536,2.45818182 C25.7860714,2.58200413 25.8216964,2.64673554 25.8399107,2.69964876 C25.8463393,2.71603306 25.8516964,2.7302686 25.8554464,2.74128099 C25.831875,2.81057851 25.7954464,2.89948347 25.7713393,3.01471074 C25.7641071,3.04533058 25.7638393,3.06440083 25.7633036,3.08373967 C25.7866071,3.26853306 25.8538393,3.33460744 25.9074107,3.38134298 C25.8535714,3.42754132 25.7574107,3.49764463 25.7448214,3.68700413 C25.753125,3.87555785 25.8479464,3.95452479 25.8811607,4.00421488 C25.8867857,4.01066116 25.891875,4.01683884 25.8964286,4.02221074 C25.8945536,4.02785124 25.8924107,4.03429752 25.8897321,4.04208678 C25.87875,4.08076446 25.8554464,4.14066116 25.8516964,4.22956612 C25.8254464,4.25669421 25.7836607,4.29644628 25.7413393,4.33834711 C25.6896429,4.41113636 25.5966964,4.43826446 25.5707143,4.66683884 C25.5707143,4.7014876 25.576875,4.73318182 25.5835714,4.7560124 C25.6266964,4.88708678 25.7191071,4.93382231 25.7654464,4.95423554 C25.895625,5.00097107 25.9794643,4.99479339 26.0750893,4.99613636 C26.0576786,5.03508264 26.0429464,5.08504132 26.0389286,5.15809917 C26.0383929,5.20483471 26.0496429,5.26097107 26.0764286,5.31039256 C26.1460714,5.43233471 26.2435714,5.46778926 26.3019643,5.48766529 C26.3041071,5.48820248 26.30625,5.48873967 26.3083929,5.48954545 C26.3070536,5.49169421 26.3059821,5.49357438 26.3046429,5.49545455 C26.2526786,5.6007438 26.1827679,5.65392562 26.1648214,5.85376033 C26.1648214,5.90237603 26.1766071,5.98188017 26.2344643,6.05252066 C26.3675893,6.19460744 26.4782143,6.19192149 26.5454464,6.21502066 C26.5789286,6.22254132 26.6049107,6.2292562 26.6158929,6.23328512 C26.7530357,6.34152893 26.859375,6.32541322 26.92125,6.33830579 C26.9475,6.34099174 26.968125,6.3431405 26.9799107,6.34475207 C27.0608036,6.3971281 27.1374107,6.40357438 27.1909821,6.40411157 C27.2177679,6.40303719 27.2424107,6.40088843 27.2649107,6.39847107 C27.2651786,6.40464876 27.2654464,6.41082645 27.2657143,6.41700413 C27.2683929,6.45997934 27.271875,6.50725207 27.2882143,6.56822314 C27.3050893,6.6243595 27.3409821,6.72024793 27.4558929,6.78524793 C27.5657143,6.84219008 27.6546429,6.84460744 27.7135714,6.85132231 C27.7730357,6.85588843 27.7952679,6.86260331 27.7958036,6.86152893 C27.9259821,6.91417355 28.0382143,6.93378099 28.1175,6.95902893 C28.171875,6.97380165 28.215,6.97702479 28.2535714,6.97702479 C28.3108929,6.97487603 28.3575,6.96896694 28.3925893,6.96305785 C28.4051786,6.98884298 28.4201786,7.01946281 28.4359821,7.05088843 C28.4858036,7.11320248 28.49625,7.25018595 28.7520536,7.30927686 L28.7732143,7.31115702 L28.7911607,7.31008264 L28.7911607,7.31061983 C28.9328571,7.30632231 29.0070536,7.25716942 29.0625,7.23433884 C29.0898214,7.22198347 29.1101786,7.21285124 29.1203571,7.20882231 C29.1225,7.20801653 29.1238393,7.20774793 29.1246429,7.20747934 C29.1251786,7.20721074 29.1257143,7.20721074 29.1259821,7.20694215 L29.1259821,7.20667355 C29.2789286,7.18733471 29.3504464,7.12636364 29.3975893,7.07479339 C29.4024107,7.08097107 29.4072321,7.08768595 29.4120536,7.09386364 C29.4420536,7.13227273 29.473125,7.17121901 29.5167857,7.21258264 C29.5620536,7.24911157 29.6175,7.31303719 29.7666964,7.32109504 C29.7677679,7.32109504 29.7707143,7.32109504 29.7752679,7.32109504 C29.7846429,7.32109504 29.8015179,7.32055785 29.8250893,7.31572314 C30.0471429,7.25555785 30.1526786,7.14221074 30.1572321,7.15671488 C30.3514286,7.07828512 30.3645536,6.95553719 30.39,6.89590909 C30.4146429,6.80995868 30.42375,6.73233471 30.4336607,6.67082645 C30.4738393,6.66545455 30.5271429,6.65497934 30.5925,6.63161157 C30.645,6.64799587 30.7275,6.69768595 30.8871429,6.70654959 C30.9369643,6.70708678 31.0082143,6.69795455 31.0791964,6.65202479 C31.2032143,6.56204545 31.2230357,6.45997934 31.2366964,6.39981405 C31.2428571,6.36382231 31.2460714,6.33132231 31.2479464,6.30258264 C31.280625,6.30688017 31.3173214,6.3103719 31.3566964,6.31171488 C31.415625,6.30956612 31.5176786,6.30902893 31.6234821,6.21072314 C31.7078571,6.11698347 31.7204464,6.02216942 31.7199107,5.9636157 C31.7183036,5.90237603 31.7097321,5.85429752 31.6990179,5.81266529 C31.704375,5.81266529 31.7097321,5.81293388 31.7153571,5.81293388 C31.7839286,5.80272727 31.9079464,5.83549587 32.053125,5.66010331 C32.1064286,5.57495868 32.1147321,5.49679752 32.1147321,5.44146694 C32.1101786,5.3356405 32.0908929,5.25855372 32.083125,5.22390496 C32.1200893,5.1403719 32.1369643,5.07214876 32.1500893,5.02272727 C32.1554464,5.02084711 32.1648214,5.01735537 32.1707143,5.01547521 C34.0186607,5.57066116 35.8269643,6.6893595 37.1405357,7.63964876 C37.1311607,7.63857438 37.1236607,7.63642562 37.1140179,7.63588843 C37.0572321,7.63588843 37.0023214,7.64555785 36.9511607,7.66167355 C36.5729464,7.80322314 36.2477679,8.14890496 36.2175,8.60390496 C36.2175,8.66192149 36.2255357,8.72154959 36.2432143,8.7803719 C36.3045536,9.00411157 36.4866964,9.13035124 36.5657143,9.17413223 C36.6514286,9.23402893 36.6342857,9.21146694 36.66,9.27082645 C36.6696429,9.30171488 36.67125,9.31944215 36.67125,9.33394628 C36.6835714,9.36188017 36.620625,9.44084711 36.6083036,9.67237603 C36.6083036,9.74247934 36.6195536,9.81795455 36.6439286,9.89477273 C36.7216071,10.1606818 36.9634821,10.2584504 37.0601786,10.2930992 C37.1263393,10.3221074 37.1485714,10.332314 37.156875,10.3379545 C37.1397321,10.3626653 37.0936607,10.4177273 37.0296429,10.4827273 C36.9546429,10.5697521 36.8252679,10.6946488 36.8188393,10.9240289 C36.8183036,10.9739876 36.826875,11.0236777 36.8408036,11.0693388 C36.8954464,11.2672934 37.0328571,11.3978306 37.0990179,11.4494008 C37.1654464,11.5109091 37.1608929,11.4939876 37.1927679,11.5780579 C37.3358036,11.9777273 37.7207143,12.1445248 38.0761607,12.1541942 C38.15625,12.1541942 38.2379464,12.1439876 38.3185714,12.1190083 C38.3785714,12.1010124 38.4278571,12.0822107 38.4725893,12.0639463 C38.4650893,12.1319008 38.4570536,12.1995868 38.4516964,12.2683471 C38.2917857,14.363657 39.2185714,16.2905579 40.755,17.4938636 C40.725,17.4965496 40.6958036,17.4984298 40.6647321,17.5024587 C40.6625893,17.5024587 40.6625893,17.5024587 40.6625893,17.5024587 C40.6623214,17.5027273 40.6623214,17.5027273 40.6617857,17.5027273 C40.6604464,17.5027273 40.6550893,17.5008471 40.6309821,17.4898347 C40.5254464,17.4573347 40.3840179,17.2953719 40.0901786,17.2744215 C40.0577679,17.2744215 40.0296429,17.2784504 40.0063393,17.2827479 C39.7770536,17.3461364 39.740625,17.4925207 39.6905357,17.5865289 C39.6254464,17.7425826 39.5874107,17.917438 39.5450893,18.0530785 C39.5440179,18.0568388 39.5429464,18.060062 39.541875,18.0635537 C39.5073214,18.0321281 39.4682143,17.9947934 39.4304464,17.9569215 C39.313125,17.8639876 39.234375,17.7275413 38.9678571,17.7022934 C38.9359821,17.7017562 38.90625,17.7065909 38.8805357,17.7127686 C38.6855357,17.7710537 38.6319643,17.9032025 38.5845536,17.9910331 C38.5261607,18.1183471 38.4913393,18.2515702 38.4570536,18.3603512 C38.4083036,18.3058264 38.3523214,18.2394835 38.3000893,18.1752893 C38.2379464,18.1019628 38.1752679,18.028905 38.1045536,17.9633678 C38.0303571,17.9042769 37.9636607,17.8236983 37.78125,17.8118802 C37.7453571,17.8118802 37.7110714,17.8180579 37.681875,17.8274587 C37.4777679,17.8929959 37.3875,18.0334711 37.3079464,18.1221074 C37.2696429,18.1683058 37.2372321,18.2069835 37.2144643,18.2287397 C37.20375,18.2381405 37.1959821,18.2448554 37.1925,18.2475413 C37.1916964,18.2478099 37.1916964,18.2480785 37.1916964,18.2480785 C36.9225,18.3584711 36.8836607,18.5534711 36.811875,18.674876 C36.7872321,18.7275207 36.7647321,18.7742562 36.7470536,18.8051446 C36.71625,18.7944008 36.669375,18.7753306 36.6158036,18.7473967 C36.5158929,18.7044215 36.4135714,18.6345868 36.2308929,18.6273347 C36.1834821,18.6273347 36.1374107,18.6356612 36.0953571,18.6501653 C35.8095536,18.7766736 35.7811607,18.9961157 35.7166071,19.1363223 C35.694375,19.1978306 35.6745536,19.2536983 35.6590179,19.2899587 C35.5853571,19.2875413 35.4399107,19.2459091 35.2984821,19.1924587 C35.1399107,19.1392769 35.01,19.0705165 34.8200893,19.0627273 C34.7574107,19.0627273 34.6639286,19.0740083 34.5760714,19.1494835 C34.4871429,19.2265702 34.4590179,19.3423347 34.4614286,19.4178099 C34.4614286,19.4188843 34.4614286,19.4199587 34.4614286,19.4213017 C34.4590179,19.5778926 34.5479464,19.7237397 34.6457143,19.7997521 C34.9336607,20.0178512 35.2907143,20.0245661 35.5175893,20.1078306 C35.5414286,20.0895661 35.7182143,20.3103512 36.0308036,20.4228926 C36.0913393,20.4400826 36.1414286,20.4446488 36.1875,20.4446488 C36.4047321,20.4360537 36.5576786,20.367562 36.6278571,20.374814 C36.6415179,20.3753512 36.6484821,20.3766942 36.6511607,20.3777686 L36.6648214,20.3817975 L36.6728571,20.3836777 C36.6961607,20.388781 36.7226786,20.3922727 36.7532143,20.3922727 C36.9163393,20.3842149 36.9916071,20.3173347 37.0679464,20.2652273 C37.1769643,20.181157 37.2733929,20.0809711 37.3572321,20.0089876 C37.3891071,19.9810537 37.4183036,19.957686 37.4397321,19.942376 C37.5254464,19.9934091 37.6725,20.126095 37.9103571,20.2053306 C38.09625,20.2571694 38.2816071,20.3028306 38.4704464,20.3533264 C38.5470536,20.3678306 38.6558036,20.4419628 38.8090179,20.5109917 C35.004375,22.3371694 33.9040179,28.1745455 34.7748214,33.2620041 C35.6734821,33.9455785 36.5059821,34.5969215 37.2752679,35.1983058 C40.9358036,38.0626033 43.3540179,39.9532438 45.8158929,39.9532438 Z M49.9765179,13.3795248 L49.9751786,13.3795248 L49.9660714,13.3070041 L49.9765179,13.3795248 Z" id="Shape" fill="#DE4040" fill-rule="nonzero"></path>
                        <path d="M31.5891964,5.01789256 C31.5516964,5.08853306 31.5444643,5.15487603 31.5444643,5.2053719 C31.5455357,5.22739669 31.5471429,5.24807851 31.5492857,5.26714876 C31.53375,5.26661157 31.5179464,5.26607438 31.5016071,5.26607438 C31.4346429,5.27440083 31.3216071,5.24673554 31.1785714,5.40010331 C31.1140179,5.47960744 31.1078571,5.56367769 31.1070536,5.61766529 C31.1086607,5.66816116 31.1148214,5.70979339 31.1228571,5.74578512 C31.1153571,5.74551653 31.1078571,5.74497934 31.1003571,5.74471074 C31.044375,5.74659091 30.9519643,5.74659091 30.849375,5.83227273 C30.7392857,5.95152893 30.7213393,6.04123967 30.7194643,6.11134298 C30.6803571,6.10140496 30.6340179,6.09334711 30.5780357,6.09012397 C30.5319643,6.09012397 30.4698214,6.09764463 30.4036607,6.13551653 C30.40875,6.13202479 30.4076786,6.1314876 30.4076786,6.1314876 C30.3859821,6.14169421 30.2882143,6.13095041 30.1395536,6.18735537 C29.9622321,6.27921488 29.9582143,6.38772727 29.9327679,6.44869835 C29.9075893,6.54404959 29.8990179,6.63053719 29.8880357,6.69204545 C29.8591071,6.70762397 29.8347321,6.72293388 29.8130357,6.73663223 C29.7977679,6.7167562 29.7811607,6.6952686 29.7650893,6.6735124 C29.7350893,6.63617769 29.7034821,6.59642562 29.6590179,6.55506198 C29.61375,6.51853306 29.5564286,6.45433884 29.4091071,6.44708678 C29.4085714,6.44708678 29.4061607,6.44708678 29.4024107,6.44708678 C29.4005357,6.44708678 29.398125,6.44708678 29.3957143,6.44708678 C29.3766964,6.44708678 29.3389286,6.44950413 29.2923214,6.47260331 C29.1385714,6.52605372 29.1048214,6.61657025 29.056875,6.65471074 C29.0483036,6.66438017 29.0405357,6.67297521 29.0341071,6.68022727 C28.9641964,6.69097107 28.9146429,6.71299587 28.8752679,6.73152893 C28.8685714,6.71783058 28.8613393,6.70305785 28.8541071,6.68855372 C28.80375,6.62382231 28.8026786,6.50349174 28.5640179,6.42506198 C28.5350893,6.4188843 28.5029464,6.41539256 28.4689286,6.41539256 C28.35375,6.41995868 28.2811607,6.44010331 28.26,6.44252066 C28.1520536,6.41109504 28.0596429,6.39229339 28.0009821,6.36677686 C27.9171429,6.33373967 27.849375,6.3267562 27.79875,6.32192149 C27.7982143,6.30338843 27.7976786,6.2832438 27.7971429,6.26256198 C27.7778571,6.18413223 27.8271429,6.06756198 27.6340179,5.90022727 C27.5517857,5.84489669 27.4725,5.83818182 27.4175893,5.83818182 C27.3254464,5.84221074 27.2558036,5.85698347 27.219375,5.86504132 C27.1055357,5.80433884 27.0241071,5.81588843 26.9713393,5.80541322 C26.9536607,5.80380165 26.9389286,5.80192149 26.9290179,5.80030992 C26.878125,5.76136364 26.8328571,5.73987603 26.7929464,5.72671488 C26.7983036,5.71785124 26.8039286,5.7089876 26.8092857,5.70012397 C26.8615179,5.59429752 26.930625,5.54165289 26.9488393,5.3410124 C26.9477679,5.28890496 26.9402679,5.23438017 26.8960714,5.16696281 C26.8186607,5.07671488 26.750625,5.03696281 26.6927679,5.01789256 C26.7214286,4.96954545 26.7538393,4.91206612 26.7597321,4.79818182 C26.7591964,4.76004132 26.7551786,4.72270661 26.7358929,4.67382231 C26.6839286,4.55778926 26.6016964,4.52152893 26.5558929,4.5013843 C26.4728571,4.47345041 26.4080357,4.46592975 26.3464286,4.46378099 C26.3665179,4.42295455 26.3828571,4.36869835 26.3916964,4.29161157 C26.3916964,4.27254132 26.390625,4.26367769 26.3900893,4.25991736 L26.3895536,4.25078512 L26.38875,4.24621901 C26.3925,4.21828512 26.435625,4.13931818 26.4399107,3.99642562 C26.4399107,3.98621901 26.4399107,3.97654959 26.439375,3.96634298 C26.4216964,3.84278926 26.3796429,3.77161157 26.34375,3.72433884 C26.3925,3.67760331 26.4950893,3.62818182 26.5283036,3.43264463 C26.5299107,3.40981405 26.529375,3.40256198 26.529375,3.40014463 C26.4983036,3.14229339 26.3775,3.11328512 26.330625,3.04640496 C26.3274107,3.04318182 26.3241964,3.04022727 26.3209821,3.03754132 C26.3375893,2.98785124 26.3595536,2.92902893 26.3815179,2.85785124 C26.394375,2.81407025 26.3967857,2.77754132 26.3967857,2.74826446 C26.3946429,2.66983471 26.379375,2.61504132 26.3638393,2.57179752 C26.3649107,2.57152893 26.3657143,2.57126033 26.3667857,2.57099174 C26.431875,2.54225207 26.540625,2.53876033 26.6483036,2.36873967 C26.6839286,2.29997934 26.6895536,2.23927686 26.6895536,2.19495868 C26.6892857,2.1772314 26.6882143,2.16030992 26.6866071,2.1447314 C26.7340179,2.15252066 26.7846429,2.15896694 26.8352679,2.16057851 C26.8941964,2.1560124 26.98875,2.16487603 27.1020536,2.05179752 C27.1909821,1.93683884 27.1915179,1.84283058 27.1933929,1.78427686 C27.1920536,1.71229339 27.1840179,1.65696281 27.1805357,1.62661157 C27.2142857,1.57020661 27.2300893,1.5218595 27.2370536,1.48076446 C27.2900893,1.50386364 27.3508929,1.52696281 27.4521429,1.53126033 C27.5019643,1.53179752 27.5627679,1.52105372 27.6198214,1.48801653 L27.6259821,1.4839876 L27.635625,1.47807851 C27.7692857,1.37816116 27.7765179,1.27475207 27.7909821,1.21404959 C27.7939286,1.19309917 27.7963393,1.17295455 27.7976786,1.1536157 C27.8327679,1.16140496 27.8729464,1.16811983 27.91875,1.17134298 C27.9404464,1.17134298 27.9666964,1.1697314 27.9953571,1.16409091 C28.0333929,1.18154959 28.1078571,1.22506198 28.2516964,1.23392562 C28.2841071,1.23392562 28.3151786,1.22989669 28.340625,1.2242562 L28.3508036,1.22130165 L28.3609821,1.2186157 C28.4930357,1.17295455 28.5326786,1.08780992 28.5565179,1.04241736 C28.6232143,0.88072314 28.6165179,0.756363636 28.6358036,0.629586777 C28.6360714,0.625557851 28.6366071,0.622066116 28.6371429,0.618305785 C28.6652679,0.619917355 28.6966071,0.621528926 28.730625,0.621528926 C28.7504464,0.621528926 28.7729464,0.620991736 28.7978571,0.619380165 C28.9984821,0.587417355 29.1066964,0.526177686 29.1083036,0.537458678 C29.1415179,0.535309917 29.2157143,0.5525 29.308125,0.568347107 C29.3220536,0.597892562 29.34,0.637644628 29.3584821,0.678739669 C29.4107143,0.74696281 29.4016071,0.870247934 29.6515179,0.955929752 C29.6866071,0.962644628 29.713125,0.963181818 29.7324107,0.963181818 C29.8344643,0.961570248 29.8971429,0.935516529 29.9413393,0.922355372 C29.9507143,0.919400826 29.95875,0.916983471 29.9657143,0.914834711 C29.9965179,0.94035124 30.0530357,0.999710744 30.1615179,1.05504132 C30.1810714,1.08995868 30.223125,1.19497934 30.3814286,1.29758264 C30.4534821,1.33518595 30.5166964,1.34109504 30.5638393,1.34109504 C30.6503571,1.33948347 30.7060714,1.32202479 30.7489286,1.31181818 C30.7620536,1.30859504 30.7733036,1.30590909 30.7826786,1.30402893 C30.83625,1.3268595 30.8817857,1.33384298 30.9198214,1.33652893 C30.8975893,1.40770661 30.8764286,1.49258264 30.8708036,1.58766529 C30.871875,1.6360124 30.8742857,1.73539256 30.9677679,1.83020661 C31.0974107,1.94516529 31.2040179,1.93012397 31.2685714,1.93549587 C31.2942857,1.93522727 31.3175893,1.93415289 31.3376786,1.93307851 C31.3486607,1.97390496 31.3703571,2.03299587 31.4065179,2.09987603 C31.4132143,2.1125 31.4166964,2.12270661 31.4247321,2.13586777 C31.5273214,2.2747314 31.6280357,2.29568182 31.6791964,2.32442149 C31.6901786,2.3289876 31.6995536,2.33355372 31.7070536,2.33704545 C31.7408036,2.40446281 31.7740179,2.48423554 31.8080357,2.56642562 C31.843125,2.65130165 31.8766071,2.74530992 31.9036607,2.83690083 C31.9516071,2.94353306 32.0025,3.00128099 32.0501786,3.03727273 C32.0116071,3.06413223 31.9730357,3.09260331 31.9325893,3.13128099 C31.8945536,3.17559917 31.8222321,3.22663223 31.8120536,3.38913223 C31.8109821,3.41061983 31.8171429,3.45010331 31.820625,3.45896694 L31.8225,3.45869835 C31.8650893,3.6236157 31.9572321,3.65504132 32.0041071,3.69479339 C32.064375,3.73239669 32.1230357,3.76006198 32.1720536,3.78342975 C32.1640179,3.80196281 32.1557143,3.82318182 32.1479464,3.84681818 C32.10375,3.85971074 32.0421429,3.87582645 31.981875,3.89301653 C31.9320536,3.90832645 31.8816964,3.92309917 31.8238393,3.95157025 C31.7750893,3.98219008 31.6741071,4.01522727 31.6266964,4.19035124 C31.6250893,4.19545455 31.6210714,4.2142562 31.6205357,4.24944215 C31.6403571,4.44981405 31.7241964,4.48177686 31.7683929,4.53683884 C31.7866071,4.55322314 31.8050893,4.56907025 31.8235714,4.58411157 C31.7761607,4.61365702 31.725,4.66280992 31.6759821,4.7557438 C31.6585714,4.80086777 31.6467857,4.83873967 31.6363393,4.87338843 C31.6135714,4.94778926 31.6028571,4.99828512 31.5891964,5.01789256 Z" id="Path" fill="#FFFFFF"></path>
                        <path d="M38.6091964,19.8360124 C38.4136607,19.783905 38.229375,19.7382438 38.0539286,19.6896281 C37.9660714,19.6815702 37.8267857,19.5094008 37.5383036,19.4081405 C37.5109821,19.3995455 37.4732143,19.3930992 37.4357143,19.3930992 C37.1386607,19.4239876 37.0473214,19.5878306 36.9058929,19.696343 C36.8432143,19.7546281 36.7850893,19.8083471 36.7446429,19.8386983 C36.7400893,19.8421901 36.7360714,19.8451446 36.7320536,19.8480992 C36.6961607,19.8421901 36.6613393,19.8397727 36.6283929,19.8397727 C36.4036607,19.8470248 36.2330357,19.9182025 36.1880357,19.9096074 L36.1824107,19.9096074 C36.121875,19.9004752 36.058125,19.8346694 35.956875,19.7578512 C36.0632143,19.6909711 36.099375,19.6069008 36.1328571,19.5453926 C36.1880357,19.4277479 36.2207143,19.3109091 36.2560714,19.2279132 C36.2633036,19.2104545 36.2708036,19.1946074 36.2775,19.1817149 C36.3680357,19.2225413 36.5394643,19.3383058 36.785625,19.3538843 C36.8244643,19.3544215 36.8724107,19.3503926 36.9249107,19.3345455 C37.2045536,19.2126033 37.2225,19.0264669 37.2961607,18.9072107 C37.3258929,18.8443595 37.35375,18.7906405 37.3725,18.7632438 C37.3759821,18.7581405 37.3786607,18.7546488 37.3808036,18.7516942 C37.5704464,18.6767562 37.6457143,18.5483678 37.7209821,18.4669835 C37.7426786,18.4403926 37.7622321,18.4170248 37.7796429,18.3979545 C37.8369643,18.458657 37.9197321,18.5553512 37.9952679,18.6482851 C38.0579464,18.7221488 38.1219643,18.7957438 38.1942857,18.8615496 C38.2700893,18.9217149 38.341875,19.0009504 38.5205357,19.0119628 C38.5336607,19.0114256 38.5599107,19.0114256 38.5925893,19.0052479 C38.8063393,18.9359504 38.8513393,18.8070248 38.8982143,18.7189256 C38.95875,18.5808678 38.994375,18.4336777 39.0324107,18.3216736 C39.0683036,18.3541736 39.1092857,18.3931198 39.1491964,18.4326033 C39.2665179,18.526343 39.3498214,18.6633264 39.6144643,18.6880372 C39.6345536,18.6880372 39.6549107,18.6864256 39.6739286,18.6834711 L39.6819643,18.6821281 L39.6916071,18.6805165 C39.9214286,18.6093388 39.9522321,18.4672521 40.0023214,18.3727066 C40.0655357,18.2177273 40.1038393,18.0423347 40.1461607,17.9083058 C40.1525893,17.8868182 40.1592857,17.8669421 40.1657143,17.8484091 C40.1989286,17.8658678 40.2391071,17.8884298 40.2819643,17.9136777 C40.3765179,17.9636364 40.4841964,18.036157 40.6633929,18.0415289 C40.6872321,18.0415289 40.7022321,18.040186 40.7067857,18.0396488 L40.7255357,18.0385744 L40.7335714,18.0372314 C40.8752679,18.0127893 41.0659821,18.0278306 41.2864286,18.0047314 C41.3132143,18.0192355 41.3836607,18.0689256 41.4589286,18.1288223 C41.5548214,18.1940909 41.6590179,18.2975 41.8722321,18.3071694 L41.8928571,18.3077066 L41.9134821,18.306095 C41.9191071,18.3055579 41.923125,18.3050207 41.9255357,18.3050207 C41.9933036,18.2958884 42.1336607,18.3622314 42.3436607,18.3874793 C42.375,18.3915083 42.4036607,18.3968802 42.4382143,18.3982231 C42.4449107,18.3982231 42.4489286,18.3982231 42.4494643,18.3982231 L42.4591071,18.3987603 L42.4716964,18.3982231 C42.7459821,18.3654545 42.9125893,18.252376 42.9867857,18.2319628 L43.0197321,18.2319628 C43.2329464,18.2244421 43.3545536,18.1226446 43.4501786,18.0659711 C43.4970536,18.0356198 43.5366964,18.0103719 43.5629464,17.9977479 C43.5680357,18.0033884 43.5739286,18.0103719 43.580625,18.0184298 C43.6234821,18.0683884 43.6770536,18.1486983 43.7453571,18.2319628 C43.8155357,18.3090496 43.8999107,18.4199793 44.0927679,18.4519421 C44.1211607,18.4543595 44.1316071,18.4535537 44.1350893,18.4535537 C44.3341071,18.4409298 44.4088393,18.3434298 44.4846429,18.2741322 C44.5923214,18.1602479 44.6825893,18.0259504 44.7624107,17.9257645 C44.7811607,17.9015909 44.799375,17.8801033 44.8151786,17.862376 C44.8395536,17.8792975 44.8698214,17.9029339 44.9027679,17.9327479 C44.9882143,18.0009711 45.0854464,18.1027686 45.2598214,18.1605165 C45.3123214,18.1766322 45.3629464,18.1822727 45.4082143,18.1817355 C45.583125,18.1782438 45.6980357,18.1089463 45.7821429,18.0694628 C45.8150893,18.0525413 45.8432143,18.038843 45.8649107,18.0294421 C45.9104464,18.0928306 45.9902679,18.223905 46.0575,18.3466529 C46.0928571,18.407624 46.1300893,18.4669835 46.1697321,18.525 C46.1860714,18.5491736 46.201875,18.5738843 46.2200893,18.5969835 C46.2857143,18.6668182 46.3529464,18.7761364 46.56,18.7911777 C46.5677679,18.7911777 46.5741964,18.7909091 46.5790179,18.7903719 L46.5953571,18.7903719 L46.6175893,18.786343 C46.8934821,18.7159711 46.9671429,18.5357438 47.0630357,18.4164876 C47.1064286,18.3530992 47.1452679,18.2945455 47.1758036,18.2566736 C47.1908036,18.2378719 47.2036607,18.2247107 47.210625,18.2182645 L47.2100893,18.2174587 C47.3252679,18.1607851 47.3807143,18.0756405 47.413125,17.9980165 C47.4273214,17.9636364 47.4385714,17.9305992 47.4458036,17.9029339 C47.4798214,17.7560124 47.4776786,17.6198347 47.4886607,17.514814 C47.4910714,17.4858058 47.4945536,17.4597521 47.4983036,17.439876 C47.5159821,17.4382645 47.5392857,17.4369215 47.566875,17.4374587 C47.5941964,17.4374587 47.6215179,17.4374587 47.6491071,17.4374587 C47.7522321,17.4336983 47.9175,17.4455165 48.0798214,17.3171281 C48.0889286,17.3160537 48.1017857,17.3152479 48.1178571,17.3152479 C48.1786607,17.3144421 48.2673214,17.3246488 48.3648214,17.3327066 C48.4210714,17.3378099 48.48,17.3418388 48.5397321,17.342376 C48.6514286,17.3361983 48.8033036,17.3472107 48.9538393,17.1833678 C49.0457143,17.0616942 49.2527679,16.9091322 49.404375,16.6859298 C49.4750893,16.5731198 49.4836607,16.4656818 49.4847321,16.3791942 C49.4828571,16.2757851 49.4689286,16.1825826 49.4576786,16.1057645 C49.449375,16.0482851 49.4421429,15.9994008 49.4434821,15.9677066 C49.4434821,15.958843 49.4440179,15.9515909 49.4445536,15.947562 C49.4791071,15.8788017 49.4892857,15.8121901 49.4892857,15.7563223 C49.48125,15.556219 49.4008929,15.4350826 49.3454464,15.3131405 C49.3165179,15.2548554 49.2908036,15.2022107 49.2747321,15.1627273 C49.2707143,15.1525207 49.2675,15.1433884 49.2648214,15.1355992 C49.3291071,15.0493802 49.486875,14.9465083 49.6092857,14.7133678 C49.6374107,14.6964463 49.7491071,14.6518595 49.865625,14.6190909 C49.9041964,14.6064669 49.9433036,14.5941116 49.9840179,14.5788017 C49.9917857,14.5814876 49.9995536,14.5841736 50.0070536,14.5868595 C50.0651786,14.6008264 50.1251786,14.6099587 50.1846429,14.6193595 C50.2821429,14.634938 50.3775,14.6486364 50.4578571,14.6650207 C50.5058036,14.6741529 50.5470536,14.6857025 50.5719643,14.6945661 C50.6600893,14.9134711 50.7846429,15.0824174 50.8058036,15.201405 C50.8058036,15.2008678 50.8063393,15.2032851 50.8063393,15.2140289 C50.8165179,15.2809091 50.7230357,15.4839669 50.7139286,15.7418182 C50.7139286,15.7544421 50.7141964,15.7673347 50.715,15.7807645 C50.6825893,15.8167562 50.6027679,15.893843 50.5186607,15.966095 C50.4166071,16.0770248 50.259375,16.1621694 50.2336607,16.4433884 C50.2333929,16.4482231 50.2336607,16.4560124 50.2344643,16.4651446 C50.2344643,16.4656818 50.2344643,16.4659504 50.2347321,16.4664876 C50.235,16.4718595 50.2355357,16.4769628 50.2363393,16.4826033 C50.2641964,16.7495868 50.3571429,16.9077893 50.3475,17.0050207 C50.3475,17.0050207 50.3472321,17.008781 50.3469643,17.0168388 C50.3466964,17.0205992 50.3464286,17.0259711 50.3461607,17.0340289 C50.3713393,17.3160537 50.5258929,17.4076446 50.6148214,17.5236777 C50.6616964,17.573905 50.7026786,17.6195661 50.7251786,17.6512603 C50.6986607,17.6810744 50.6499107,17.7299587 50.5915179,17.7815289 C50.5082143,17.8647934 50.390625,17.9579959 50.3338393,18.1513843 C50.3220536,18.1954339 50.3172321,18.2400207 50.3172321,18.2811157 C50.3333036,18.5545455 50.4514286,18.7554545 50.4358929,18.806219 L50.4366964,18.806219 C50.37,18.9802686 50.285625,19.1870868 50.1996429,19.3544215 L50.1999107,19.3546901 C50.1645536,19.4105579 49.88625,19.4602479 49.6754464,19.730186 C49.5699107,19.9010124 49.5720536,20.0508884 49.554375,20.1645041 C49.54875,20.2273554 49.5385714,20.2746281 49.5302679,20.3049793 C49.5241071,20.3052479 49.5174107,20.3055165 49.5104464,20.3055165 C49.4276786,20.3060537 49.2983036,20.2888636 49.1614286,20.2883264 C49.0467857,20.2934298 48.8973214,20.2842975 48.7422321,20.4330992 C48.6214286,20.5628306 48.590625,20.6944421 48.556875,20.7723347 C48.5236607,20.8574793 48.5078571,20.8644628 48.5083929,20.8660744 C48.3640179,20.9565909 48.3316071,21.0618802 48.2946429,21.1470248 C48.256875,21.2485537 48.2325,21.351157 48.2089286,21.4371074 C48.1609821,21.3812397 48.1063393,21.3154339 48.0551786,21.2517769 C47.9914286,21.1752273 47.9263393,21.0984091 47.8526786,21.0309917 C47.7758036,20.9689463 47.7026786,20.887562 47.521875,20.8768182 C47.5047321,20.8770868 47.4795536,20.877624 47.4466071,20.8859504 C47.2958036,20.9149587 47.1482143,20.918719 46.9398214,20.9402066 C46.6963393,20.9810331 46.6044643,21.1225826 46.5160714,21.198595 C46.47375,21.2402273 46.4386607,21.2735331 46.4166964,21.2877686 C46.4116071,21.2917975 46.4073214,21.2942149 46.4046429,21.2958264 C46.2490179,21.3116736 46.1667857,21.3917149 46.1022321,21.451343 C46.0850893,21.4682645 46.0725,21.4857231 46.0569643,21.5029132 C45.9827679,21.5856405 45.9214286,21.668905 45.8694643,21.7290702 C45.8547321,21.7465289 45.8408036,21.7618388 45.8292857,21.7733884 C45.7958036,21.7545868 45.7419643,21.7188636 45.6816964,21.6758884 C45.58875,21.6157231 45.4757143,21.5278926 45.2876786,21.513657 C45.2882143,21.5141942 45.283125,21.5125826 45.2592857,21.5125826 C44.9410714,21.5372934 44.7482143,21.6914669 44.7026786,21.6680992 C44.7026786,21.6680992 44.6991964,21.6678306 44.6892857,21.667562 C44.6453571,21.6638017 44.6025,21.6627273 44.56125,21.6627273 C44.4415179,21.6627273 44.3319643,21.6707851 44.236875,21.6707851 C44.2191964,21.6707851 44.2020536,21.6705165 44.1851786,21.6697107 C44.1460714,21.601219 44.0922321,21.4607438 44.0338393,21.3277893 C44.000625,21.2552686 43.9666071,21.1824793 43.9157143,21.1107645 C43.865625,21.0438843 43.7927679,20.9488017 43.63125,20.9211364 C43.6125,20.9181818 43.5883929,20.9163017 43.5645536,20.9163017 C43.3848214,20.9211364 43.27125,20.9907025 43.1777679,21.0326033 C43.0872321,21.0801446 43.0242857,21.0965289 43.02375,21.0954545 C43.02375,21.0954545 43.0232143,21.095186 43.0224107,21.095186 C42.969375,21.0876653 42.9179464,21.0844421 42.8686607,21.0844421 C42.7317857,21.0855165 42.6176786,21.1016322 42.5327679,21.101095 C42.515625,21.101095 42.4995536,21.1005579 42.4848214,21.0994835 C42.4775893,21.0900826 42.4679464,21.0761157 42.4566964,21.0578512 C42.4173214,20.9955372 42.3707143,20.9004545 42.3096429,20.8040289 C42.2450893,20.7148554 42.1757143,20.5859298 41.9697321,20.5351653 C41.9394643,20.5292562 41.9070536,20.5254959 41.8735714,20.5260331 C41.7109821,20.5289876 41.6008929,20.585124 41.510625,20.6205785 C41.4227679,20.6595248 41.355,20.6772521 41.3539286,20.6737603 L41.3499107,20.6729545 C41.3292857,20.6683884 41.296875,20.6651653 41.2660714,20.6657025 C41.0777679,20.671343 40.9644643,20.747624 40.8669643,20.7938223 C40.824375,20.8163843 40.7871429,20.8349174 40.7584821,20.8470041 C40.755,20.8402893 40.75125,20.8327686 40.7472321,20.8247107 C40.7102679,20.7543388 40.6690179,20.6498554 40.6149107,20.5445661 C40.5554464,20.4473347 40.501875,20.3060537 40.2830357,20.2391736 C40.2541071,20.2324587 40.2192857,20.2270868 40.1820536,20.227624 C39.9819643,20.234876 39.8689286,20.3208264 39.766875,20.3723967 C39.7178571,20.4005992 39.675,20.4236983 39.6447321,20.4368595 C39.6380357,20.439814 39.6324107,20.4422314 39.6275893,20.443843 C39.6246429,20.441157 39.6208929,20.4382025 39.6163393,20.4344421 C39.5697321,20.4065083 39.5223214,20.3318388 39.4430357,20.2531405 C39.3747321,20.1854545 39.283125,20.1142769 39.144375,20.0675413 C39.0265179,20.0452479 38.8679464,19.9136364 38.6091964,19.8360124 Z" id="Path" fill="#FFFFFF"></path>
                        <path d="M49.1949107,13.822438 C49.3266964,14.1130579 49.1825893,14.3679545 49.1825893,14.3679545 C49.1825893,14.3679545 48.6257143,15.2870868 47.0954464,15.5382231 C45.5649107,15.7907025 45.5608929,14.4791529 45.5608929,14.4791529 C45.5608929,14.4791529 46.5219643,15.1511777 46.891875,14.0144835 C47.2617857,12.8777893 48.8365179,13.4829339 48.8365179,13.4829339 C48.8365179,13.4829339 49.063125,13.5318182 49.1949107,13.822438 Z" id="Path" fill="#FFFFFF"></path>
                        <path d="M48.7524107,8.01514463 C48.7534821,8.01809917 48.7564286,8.03260331 48.7564286,8.05489669 C48.7585714,8.12849174 48.7170536,8.27219008 48.650625,8.39010331 C48.646875,8.39681818 48.6439286,8.40433884 48.6399107,8.41078512 C48.5809821,8.51876033 48.4944643,8.59557851 48.4633929,8.6122314 C48.4441071,8.60095041 48.3883929,8.5582438 48.3192857,8.49458678 C48.2351786,8.42448347 48.1084821,8.30657025 47.8923214,8.30146694 C47.8390179,8.30146694 47.7851786,8.31113636 47.7345536,8.32832645 C47.4324107,8.42260331 47.4399107,8.44785124 47.1825,8.52628099 C47.0413393,8.56657025 46.9328571,8.67508264 46.8811607,8.77177686 C46.8021429,8.91789256 46.7884821,9.03983471 46.7630357,9.10644628 C46.7555357,9.12847107 46.7488393,9.14297521 46.7448214,9.15022727 C46.7394643,9.15130165 46.7359821,9.15130165 46.7335714,9.15130165 C46.7319643,9.15264463 46.7108036,9.1488843 46.6358036,9.10241736 C46.5658929,9.06132231 46.4426786,8.97590909 46.2594643,8.97456612 C46.2016071,8.97456612 46.1397321,8.98423554 46.0789286,9.00464876 C46.0647321,9.00894628 46.0526786,9.00948347 46.0425,9.01002066 C46.0272321,9.00948347 46.010625,9.00652893 45.9476786,8.97886364 C45.8882143,8.9536157 45.7824107,8.90419421 45.6417857,8.9047314 C45.5742857,8.90419421 45.5059821,8.91628099 45.4390179,8.93830579 C45.2691964,8.98745868 45.1505357,9.07340909 45.0886607,9.12363636 C45.0251786,9.17144628 45.0182143,9.18353306 44.90625,9.22086777 C44.7621429,9.2622314 44.653125,9.37557851 44.6030357,9.47415289 C44.5264286,9.62322314 44.514375,9.74838843 44.4889286,9.81849174 C44.4849107,9.8313843 44.4811607,9.8418595 44.4776786,9.84991736 C44.4516964,9.83165289 44.4032143,9.79190083 44.3453571,9.73818182 C44.2607143,9.66754132 44.1340179,9.54801653 43.9159821,9.54264463 C43.8621429,9.54264463 43.8099107,9.55231405 43.760625,9.56896694 C43.5725893,9.62080579 43.4426786,9.75134298 43.3888393,9.81607438 C43.3264286,9.8802686 43.3398214,9.87865702 43.2500893,9.9122314 C43.0082143,9.98045455 42.8914286,10.1918388 42.8515179,10.2794008 C42.7936607,10.3811983 42.8129464,10.3597107 42.7708929,10.3790496 C42.6567857,10.412624 42.6316071,10.4096694 42.5600893,10.4107438 C42.5600893,10.411281 42.5600893,10.4107438 42.5421429,10.4102066 C42.4639286,10.4091322 42.3326786,10.4147727 42.1730357,10.4671488 C41.9675893,10.5240909 41.836875,10.6782645 41.7875893,10.7502479 C41.7302679,10.8195455 41.7439286,10.8163223 41.6828571,10.8410331 C41.6600893,10.8257231 41.6019643,10.7776446 41.5336607,10.7104959 C41.446875,10.6347521 41.3209821,10.5052893 41.0927679,10.4985744 C41.0429464,10.4985744 40.9899107,10.5071694 40.93875,10.5248967 C40.6735714,10.6046694 40.5816964,10.8560744 40.5476786,10.9570661 C40.4959821,11.085186 40.5021429,11.0623554 40.4914286,11.0674587 C40.1654464,11.1703306 40.1775,11.2100826 39.93375,11.2826033 C39.9013393,11.2922727 39.8828571,11.2938843 39.8678571,11.2938843 C39.8389286,11.3070455 39.759375,11.243657 39.52875,11.2310331 C39.4588393,11.2310331 39.3811607,11.2428512 39.3016071,11.2691736 C39.1813393,11.3046281 39.1494643,11.3038223 39.0728571,11.3089256 C38.9954464,11.3124174 38.8741071,11.3215496 38.7133929,11.3725826 C38.6614286,11.3884298 38.6177679,11.4042769 38.5773214,11.4206612 C38.4942857,11.4536983 38.4321429,11.4861983 38.3871429,11.5117149 C38.3207143,11.547438 38.2877679,11.567314 38.1610714,11.6076033 C38.1396429,11.613781 38.1101786,11.6186157 38.0753571,11.6186157 C37.9100893,11.6280165 37.7041071,11.4864669 37.7041071,11.4222727 C37.6494643,11.2248554 37.5123214,11.0943182 37.4458929,11.0424793 C37.3834821,10.9841942 37.38375,10.9957438 37.3577679,10.9275207 C37.3738393,10.9038843 37.4207143,10.8472107 37.4863393,10.7811364 C37.5613393,10.6941116 37.6907143,10.5694835 37.6971429,10.3398347 C37.6976786,10.2920248 37.6904464,10.2436777 37.6757143,10.1958678 C37.5977679,9.92942149 37.3561607,9.83165289 37.2594643,9.79673554 C37.1383929,9.74409091 37.1635714,9.75429752 37.155,9.73818182 C37.1448214,9.70460744 37.14375,9.68688017 37.14375,9.6739876 C37.1308929,9.64551653 37.1938393,9.56708678 37.2061607,9.33555785 C37.2066964,9.26733471 37.1959821,9.19159091 37.1716071,9.11369835 C37.1108036,8.89157025 36.9291964,8.76452479 36.8496429,8.7207438 C36.7639286,8.66084711 36.7802679,8.6831405 36.7548214,8.62404959 C36.7542857,8.62055785 36.7526786,8.61464876 36.7526786,8.60551653 C36.7253571,8.51365702 36.984375,8.1897314 37.1086607,8.17657025 C37.1091964,8.17657025 37.11375,8.17442149 37.11375,8.17442149 C37.1145536,8.17442149 37.1166964,8.17442149 37.1284821,8.18113636 C37.1863393,8.1902686 37.3135714,8.38741736 37.6315179,8.40702479 C37.6842857,8.40702479 37.7370536,8.39869835 37.7876786,8.38446281 C37.8691071,8.36190083 37.9336607,8.32349174 37.9904464,8.2821281 C38.0884821,8.21095041 38.1551786,8.12768595 38.1849107,8.07987603 C38.2457143,8.00010331 38.2240179,8.01245868 38.2933929,7.9842562 C38.3461607,7.9678719 38.3729464,7.96599174 38.39625,7.96545455 C38.43375,7.96196281 38.4991071,7.98586777 38.6432143,7.9893595 C38.7214286,7.99016529 38.8074107,7.97700413 38.9003571,7.94987603 C39.0519643,7.90582645 39.1604464,7.78845041 39.2086607,7.68826446 C39.2836607,7.53650826 39.294375,7.40892562 39.3198214,7.33559917 C39.3225,7.32592975 39.3251786,7.31760331 39.3278571,7.31008264 C39.3573214,7.33345041 39.4058036,7.37615702 39.4601786,7.43095041 C39.5488393,7.50830579 39.6736607,7.64099174 39.9058929,7.6485124 C39.9535714,7.6485124 39.9991071,7.64126033 40.0400893,7.63051653 C40.3489286,7.53086777 40.4153571,7.25475207 40.4472321,7.14274793 C40.4654464,7.07801653 40.4823214,7.03289256 40.4908929,7.0202686 L40.4900893,7.02 C40.5021429,7.01623967 40.5069643,7.01623967 40.5083036,7.01623967 C40.5133929,7.01516529 40.5326786,7.01865702 40.6058036,7.06136364 C40.6733036,7.09950413 40.7949107,7.17739669 40.9698214,7.17793388 C41.0276786,7.17793388 41.0863393,7.16907025 41.1423214,7.15349174 C41.4222321,7.06942149 41.5141071,6.81882231 41.5489286,6.71809917 C41.600625,6.59105372 41.5936607,6.6138843 41.6057143,6.6082438 C41.6158929,6.60528926 41.6175,6.60528926 41.6183036,6.60528926 C41.6188393,6.60367769 41.6391964,6.60716942 41.7171429,6.65981405 C41.7891964,6.70547521 41.9158929,6.80055785 42.1095536,6.80216942 C42.1679464,6.80216942 42.2223214,6.79303719 42.2729464,6.77880165 C42.481875,6.72078512 42.6123214,6.57681818 42.6640179,6.50725207 C42.7258929,6.43768595 42.7082143,6.44359504 42.7907143,6.41163223 C42.9889286,6.35657025 43.1201786,6.21931818 43.1721429,6.15190083 C43.2345536,6.08475207 43.21875,6.08904959 43.305,6.0560124 C43.4627679,6.00793388 43.5640179,5.95448347 43.6301786,5.91688017 C43.6936607,5.8827686 43.7255357,5.86289256 43.8380357,5.82663223 C43.8621429,5.84301653 43.9213393,5.8935124 43.9896429,5.96254132 C44.0780357,6.04097107 44.2036607,6.17419421 44.4369643,6.18144628 C44.4846429,6.18144628 44.53125,6.17419421 44.5730357,6.16237603 C44.908125,6.05628099 44.895,6.01599174 45.1379464,5.94400826 C45.1907143,5.92816116 45.2180357,5.92547521 45.2394643,5.92547521 C45.2783036,5.92198347 45.3433929,5.94696281 45.4909821,5.95045455 C45.545625,5.95072314 45.6077679,5.9418595 45.6725893,5.92789256 C45.6977679,5.92225207 45.721875,5.91849174 45.748125,5.91070248 C45.8410714,5.88115702 45.9099107,5.83307851 45.9642857,5.77909091 C46.08375,5.6603719 46.1263393,5.5086157 46.1485714,5.4331405 C46.1673214,5.36948347 46.1836607,5.32623967 46.1922321,5.3138843 L46.1911607,5.31254132 C46.1922321,5.31254132 46.1973214,5.31012397 46.1973214,5.31012397 C46.1989286,5.3085124 46.2171429,5.31254132 46.2988393,5.37404959 C46.3467857,5.40681818 46.4188393,5.4602686 46.5152679,5.4978719 C46.5723214,5.51989669 46.6355357,5.53762397 46.7132143,5.53896694 C46.7659821,5.53896694 46.8198214,5.53117769 46.8715179,5.51613636 C47.0185714,5.47423554 47.1275893,5.36491736 47.1792857,5.26795455 C47.2580357,5.12103306 47.2725,4.99855372 47.2979464,4.93140496 C47.3027679,4.91582645 47.3075893,4.90427686 47.3113393,4.89595041 C47.3148214,4.89944215 47.3188393,4.90320248 47.3239286,4.90857438 C47.3833929,4.9668595 47.4658929,5.15272727 47.5100893,5.30663223 C47.5658036,5.50834711 47.7099107,5.6386157 47.77875,5.68938017 C47.8478571,5.75061983 47.8411607,5.73154959 47.8716964,5.81239669 C47.8746429,5.82206612 47.8746429,5.82555785 47.8751786,5.8285124 C47.8757143,5.8285124 47.8735714,5.84811983 47.8253571,5.92359504 C47.7833036,5.99316116 47.69625,6.11725207 47.6946429,6.30338843 C47.6946429,6.36086777 47.7042857,6.42076446 47.7219643,6.47743802 C47.7677679,6.63671488 47.9019643,6.74307851 48.0069643,6.78551653 C48.1671429,6.8521281 48.3048214,6.8577686 48.391875,6.88113636 C48.4154464,6.88650826 48.4336607,6.89241736 48.4454464,6.89698347 C48.4502679,6.91766529 48.4510714,6.93082645 48.4516071,6.94157025 C48.4583036,6.96762397 48.4232143,7.01650826 48.4141071,7.18975207 C48.4130357,7.29154959 48.4465179,7.40489669 48.5059821,7.50884298 C48.6758036,7.81181818 48.6677679,7.74977273 48.751875,8.01514463 L49.0076786,7.93644628 L48.7524107,8.01514463 Z" id="Path" fill="#FFFFFF"></path>
                        <path d="M26.8173214,30.147376 C29.2963393,30.147376 31.3891071,30.7595041 33.0383036,31.9660331 C33.1682143,32.0611157 33.2951786,32.155124 33.4229464,32.2494008 C32.9405357,28.7740496 30.5633036,27.2204959 28.7946429,25.1931405 C26.5025893,22.5673554 23.158125,21.5340702 20.398125,21.125 C20.4452679,20.8891736 20.3986607,20.6659711 20.2229464,20.4478719 C20.105625,20.3028306 19.948125,20.2606612 19.7611607,20.2902066 C19.9845536,18.5400413 20.1066964,16.2086364 18.7941964,16.0160537 C16.9636607,15.7469215 16.115625,17.3815909 14.9102679,17.9859298 C13.7049107,18.5902686 9.14517857,18.2859504 10.2672321,19.6420868 C11.2248214,20.7997314 13.0173214,21.6769628 14.4385714,22.2340289 C11.2419643,22.2141529 4.25892857,23.2987397 1.584375,23.671281 C-1.62991071,24.1187603 0.669375,26.3572314 2.990625,25.4617355 C5.311875,24.5667769 13.6154464,22.8654959 12.811875,24.0295868 C12.0083036,25.1931405 10.021875,25.0142562 10.490625,26.0886364 C10.7472321,26.6763223 12.3265179,26.5933264 13.996875,26.1052893 C13.7041071,26.9183264 13.3714286,27.876405 12.9013393,29.0431818 C11.7383036,31.9311157 10.3526786,35.2270455 10.6690179,37.5485124 C10.6990179,37.7684917 10.7349107,37.9841736 10.7764286,38.1955579 C14.045625,33.703843 20.7717857,30.147376 26.8173214,30.147376 Z" id="Shape" fill="#906E31" fill-rule="nonzero"></path>
                    </g>
                </g>
            </g>
            <path d="M770.317989,86.25 C770.317989,87.0784271 769.646416,87.75 768.817989,87.75 C768.418426,87.7500089 768.035371,87.5906016 767.753778,87.3071306 C767.472184,87.0236595 767.315325,86.6395545 767.317989,86.24 L767.317989,84.5 C767.317989,83.6715729 767.989562,83 768.817989,83 C769.646416,83 770.317989,83.6715729 770.317989,84.5 L770.317989,86.25 Z M768.817922,90.65 C769.646349,90.65 770.317922,91.3215729 770.317922,92.15 L770.317922,93.9 C770.317922,94.7284271 769.646349,95.4 768.817922,95.4 C767.989495,95.4 767.317922,94.7284271 767.317922,93.9 L767.317922,92.15 C767.317922,91.3215729 767.989495,90.65 768.817922,90.65 Z M772.9,90.6449203 L771.15,90.6449203 C770.321573,90.6449203 769.65,89.9733474 769.65,89.1449203 C769.65,88.3164931 770.321573,87.6449203 771.15,87.6449203 L772.9,87.6449203 C773.728427,87.6449203 774.4,88.3164931 774.4,89.1449203 C774.4,89.9733474 773.728427,90.6449202 772.9,90.6449203 Z M764.5,90.6049203 C763.671573,90.6049203 763,89.9333474 763,89.1049203 C763,88.2764931 763.671573,87.6049203 764.5,87.6049203 L766.25,87.6049203 C767.078427,87.6049203 767.75,88.2764931 767.75,89.1049203 C767.75,89.9333474 767.078427,90.6049203 766.25,90.6049203 L764.5,90.6049203 Z" id="star4" fill="#E4B45A" mask="url(#mask-2)"></path>
            <path d="M620.317989,13.25 C620.317989,14.0784271 619.646416,14.75 618.817989,14.75 C618.418426,14.7500089 618.035371,14.5906016 617.753778,14.3071306 C617.472184,14.0236595 617.315325,13.6395545 617.317989,13.24 L617.317989,11.5 C617.317989,10.6715729 617.989562,10 618.817989,10 C619.646416,10 620.317989,10.6715729 620.317989,11.5 L620.317989,13.25 Z M618.817922,17.65 C619.646349,17.65 620.317922,18.3215729 620.317922,19.15 L620.317922,20.9 C620.317922,21.7284271 619.646349,22.4 618.817922,22.4 C617.989495,22.4 617.317922,21.7284271 617.317922,20.9 L617.317922,19.15 C617.317922,18.3215729 617.989495,17.65 618.817922,17.65 Z M622.9,17.6449203 L621.15,17.6449203 C620.321573,17.6449203 619.65,16.9733474 619.65,16.1449203 C619.65,15.3164931 620.321573,14.6449203 621.15,14.6449203 L622.9,14.6449203 C623.728427,14.6449203 624.4,15.3164931 624.4,16.1449203 C624.4,16.9733474 623.728427,17.6449202 622.9,17.6449203 Z M614.5,17.6049203 C613.671573,17.6049203 613,16.9333474 613,16.1049203 C613,15.2764931 613.671573,14.6049203 614.5,14.6049203 L616.25,14.6049203 C617.078427,14.6049203 617.75,15.2764931 617.75,16.1049203 C617.75,16.9333474 617.078427,17.6049203 616.25,17.6049203 L614.5,17.6049203 Z" id="star3" fill="#E4B45A" mask="url(#mask-2)"></path>
            <path d="M468.841281,112.5 C468.012854,112.5 467.341281,111.828427 467.341281,111 L467.341281,109.25 C467.341281,108.421573 468.012854,107.75 468.841281,107.75 C469.669708,107.75 470.341281,108.421573 470.341281,109.25 L470.341281,111 C470.341281,111.828427 469.669708,112.5 468.841281,112.5 Z M468.841281,115.4 C469.669708,115.4 470.341281,116.071573 470.341281,116.9 L470.341281,118.65 C470.341281,119.478427 469.669708,120.15 468.841281,120.15 C468.012854,120.15 467.341281,119.478427 467.341281,118.65 L467.341281,116.9 C467.341281,116.071573 468.012854,115.4 468.841281,115.4 Z M471.092093,115.273735 C470.263666,115.273735 469.592093,114.602163 469.592093,113.773735 C469.592093,112.945308 470.263666,112.273735 471.092093,112.273735 L472.842093,112.273735 C473.67052,112.273735 474.342093,112.945308 474.342093,113.773735 C474.342093,114.602163 473.67052,115.273735 472.842093,115.273735 L471.092093,115.273735 Z M464.462093,115.223735 C463.633666,115.223735 462.962093,114.552163 462.962093,113.723735 C462.962093,112.895308 463.633666,112.223735 464.462093,112.223735 L466.212093,112.223735 C467.04052,112.223735 467.712093,112.895308 467.712093,113.723735 C467.712093,114.552163 467.04052,115.223735 466.212093,115.223735 L464.462093,115.223735 Z" id="star2" fill="#E4B45A" mask="url(#mask-2)"></path>
            <path d="M313.021281,46.69 L313.021281,46.69 C312.192854,46.69 311.521281,46.0184271 311.521281,45.19 L311.521281,43.44 C311.521281,42.6115729 312.192854,41.94 313.021281,41.94 C313.849708,41.94 314.521281,42.6115729 314.521281,43.44 L314.521281,45.19 C314.521281,46.0184271 313.849708,46.69 313.021281,46.69 Z M313.021281,48.59 L313.021281,48.59 C313.849708,48.59 314.521281,49.2615729 314.521281,50.09 L314.521281,51.84 C314.521281,52.6684271 313.849708,53.34 313.021281,53.34 C312.192854,53.34 311.521281,52.6684271 311.521281,51.84 L311.521281,50.09 C311.521281,49.2615729 312.192854,48.59 313.021281,48.59 Z M315.358292,49.0754443 C314.529865,49.0754443 313.858292,48.4038715 313.858292,47.5754443 C313.858292,46.7470172 314.529865,46.0754443 315.358292,46.0754443 L317.108292,46.0754443 C317.936719,46.0754443 318.608292,46.7470172 318.608292,47.5754443 C318.608292,48.4038715 317.936719,49.0754443 317.108292,49.0754443 L315.358292,49.0754443 Z M307.208292,47.5754443 C307.208292,46.7470172 307.879865,46.0754443 308.708292,46.0754443 L310.458292,46.0754443 C311.286719,46.0754443 311.958292,46.7470172 311.958292,47.5754443 C311.958292,48.4038715 311.286719,49.0754443 310.458292,49.0754443 L308.708292,49.0754443 C307.879865,49.0754443 307.208292,48.4038715 307.208292,47.5754443 Z" id="star1" fill="#E4B45A" mask="url(#mask-2)"></path>
        </g>
    </g>
</svg>